<?xml version="1.0" standalone="no"?>
<!DOCTYPE svg PUBLIC "-//W3C//DTD SVG 20010904//EN"
 "http://www.w3.org/TR/2001/REC-SVG-20010904/DTD/svg10.dtd">
<svg version="1.0" xmlns="http://www.w3.org/2000/svg"
 width="1533.000000pt" height="1044.000000pt" viewBox="0 0 1533.000000 1044.000000"
 preserveAspectRatio="xMidYMid meet">

<g transform="translate(0.000000,1044.000000) scale(0.100000,-0.100000)"
fill="#000000" stroke="none">
<path d="M0 5220 l0 -5220 7665 0 7665 0 0 5220 0 5220 -7665 0 -7665 0 0
-5220z m15051 5164 c66 -31 114 -78 146 -142 23 -47 28 -70 28 -132 0 -125
-62 -222 -174 -274 -45 -21 -59 -21 -685 -24 -708 -3 -704 -3 -788 61 -187
143 -139 441 84 518 50 17 94 18 698 16 632 -2 646 -2 691 -23z m-14353 -31
c-75 -2 -201 -2 -280 0 -79 1 -17 3 137 3 154 0 218 -2 143 -3z m10060 0
c-142 -2 -374 -2 -515 0 -142 1 -26 2 257 2 283 0 399 -1 258 -2z m1515 -1
l-223 -2 0 -240 0 -240 223 -2 c122 -2 20 -3 -228 -3 -247 0 -350 1 -227 3
l222 2 0 240 0 240 -222 2 c-123 2 -20 3 227 3 248 0 350 -1 228 -3z m-2863
-136 c6 -18 14 -22 32 -19 32 6 58 -38 40 -68 -10 -15 -10 -23 0 -38 18 -30
-8 -74 -40 -68 -18 3 -26 -1 -32 -19 -7 -18 -17 -24 -40 -24 -23 0 -33 6 -40
24 -6 18 -14 22 -32 19 -32 -6 -58 38 -40 68 10 15 10 23 0 38 -18 30 8 74 40
68 18 -3 26 1 32 19 7 18 17 24 40 24 23 0 33 -6 40 -24z m-550 -6 c62 -44 67
-144 9 -192 -26 -22 -44 -28 -80 -28 -40 0 -53 5 -83 34 -32 30 -36 39 -36 86
0 47 4 56 36 86 29 28 43 34 81 34 29 0 55 -7 73 -20z m-569 -9 c19 -15 24
-29 24 -69 0 -42 5 -56 29 -81 40 -42 24 -53 -18 -12 -29 29 -37 31 -74 25
-35 -5 -44 -3 -66 19 -72 72 27 182 105 118z m-5856 -66 c15 -41 31 -75 34
-75 4 0 19 34 35 75 22 56 33 75 47 75 17 0 19 -9 19 -100 0 -82 -3 -100 -15
-100 -12 0 -15 15 -16 73 l0 72 -28 -70 c-16 -38 -35 -70 -42 -70 -7 0 -25 32
-40 70 l-28 70 0 -72 c-1 -58 -4 -73 -16 -73 -12 0 -15 18 -15 100 0 92 2 100
19 100 15 0 25 -18 46 -75z m915 -26 c0 -86 -2 -100 -15 -95 -8 3 -25 2 -37
-3 -53 -19 -102 42 -78 99 7 16 22 33 34 37 24 8 23 8 54 -2 20 -6 22 -3 22
29 0 20 5 36 10 36 6 0 10 -40 10 -101z m342 89 c17 -13 21 -28 19 -59 0 -9
-19 -37 -42 -63 l-41 -46 46 0 c25 0 46 -4 46 -10 0 -6 -27 -10 -60 -10 -39 0
-60 4 -60 11 0 7 20 37 45 67 47 57 52 77 23 96 -13 8 -21 6 -36 -8 -15 -13
-22 -14 -28 -5 -17 29 56 51 88 27z m173 -13 c20 -20 25 -34 25 -77 -1 -58
-14 -82 -51 -96 -80 -31 -131 106 -66 176 27 29 62 28 92 -3z m147 8 c28 -25
22 -56 -23 -112 l-41 -51 41 0 c23 0 41 -4 41 -10 0 -6 -27 -10 -60 -10 -33 0
-60 4 -60 8 0 5 23 35 51 67 51 59 57 80 27 99 -13 8 -21 6 -36 -8 -23 -20
-41 -4 -22 19 17 20 59 19 82 -2z m138 6 c0 -6 -9 -24 -21 -40 l-20 -29 22 0
c51 0 79 -69 42 -102 -32 -28 -58 -30 -86 -7 -37 29 -35 65 10 133 36 54 53
69 53 45z m7540 1 c0 -14 87 -13 92 2 3 8 12 5 27 -9 20 -18 22 -28 19 -104
l-3 -84 -90 0 -90 0 -3 84 c-2 69 0 87 15 102 20 20 33 24 33 9z m688 4 c34
-10 27 -27 -9 -19 -63 14 -120 -40 -105 -99 24 -97 166 -76 166 24 0 11 5 20
10 20 14 0 12 -25 -4 -64 -35 -84 -157 -78 -186 9 -15 45 10 102 54 121 36 15
43 16 74 8z m630 -17 c4 -20 -25 -34 -40 -19 -15 15 -1 44 19 40 10 -2 19 -11
21 -21z m71 9 c9 -10 8 -16 -4 -26 -21 -17 -51 6 -34 26 6 8 15 14 19 14 4 0
13 -6 19 -14z m79 -9 c4 -20 -25 -34 -40 -19 -15 15 -1 44 19 40 10 -2 19 -11
21 -21z m-12531 -13 c-9 -9 -28 6 -21 18 4 6 10 6 17 -1 6 -6 8 -13 4 -17z
m-227 -15 c0 -27 3 -30 28 -27 21 2 28 9 30 31 2 15 8 25 13 22 12 -8 12 -125
-1 -125 -5 0 -10 11 -10 25 0 21 -5 25 -30 25 -25 0 -30 -4 -30 -25 0 -14 -4
-25 -10 -25 -6 0 -10 28 -10 65 0 37 4 65 10 65 6 0 10 -14 10 -31z m9686 17
c10 -8 16 -18 11 -22 -4 -4 -13 -2 -19 4 -16 16 -38 15 -38 -2 0 -8 14 -19 31
-25 25 -9 30 -15 27 -38 -2 -22 -9 -29 -31 -31 -30 -4 -61 14 -51 30 4 6 10 6
17 -1 16 -16 47 -14 47 3 0 8 -13 19 -30 25 -32 11 -40 37 -18 59 16 16 30 15
54 -2z m2305 -60 l-61 -61 -22 22 c-24 25 -18 44 7 23 14 -12 23 -6 67 38 29
28 56 48 61 45 5 -3 -18 -33 -52 -67z m-10877 23 l-28 -29 28 -29 c15 -16 23
-31 18 -35 -5 -3 -24 10 -42 29 l-34 35 34 35 c18 19 37 32 42 29 5 -4 -3 -19
-18 -35z m397 -63 c-19 -20 -38 -33 -43 -30 -5 4 3 19 18 35 l28 29 -27 28
c-40 42 -19 49 22 8 l35 -36 -33 -34z m-1326 44 c10 -31 -12 -60 -44 -60 -31
0 -41 14 -41 56 0 47 70 50 85 4z m2123 12 c6 -9 12 -39 12 -67 l0 -51 -47 -2
c-53 -2 -73 10 -73 44 0 28 26 44 71 44 28 0 30 2 18 16 -9 11 -23 14 -46 11
-37 -6 -45 9 -11 22 28 10 59 3 76 -17z m251 2 c8 -7 12 -17 8 -21 -4 -3 -13
-1 -19 5 -20 20 -56 14 -74 -13 -15 -23 -15 -27 0 -50 18 -27 54 -33 74 -13 6
6 15 9 18 5 9 -9 -15 -37 -32 -37 -17 0 -18 -17 -1 -23 9 -3 9 -9 1 -23 -13
-22 -35 -25 -42 -6 -2 7 2 10 12 6 9 -3 16 -1 16 5 0 6 -7 11 -15 11 -8 0 -15
4 -15 10 0 5 -11 20 -25 34 -70 70 23 178 94 110z m156 -7 c30 -43 14 -98 -34
-115 -36 -13 -71 3 -89 41 -35 73 77 140 123 74z m387 0 c4 -7 8 -22 8 -34 0
-21 -5 -23 -55 -23 -53 0 -55 -1 -45 -20 12 -23 41 -26 70 -8 25 16 39 2 18
-18 -21 -21 -74 -21 -98 1 -39 35 -21 111 30 127 18 6 62 -9 72 -25z m6848
-28 c0 -50 -18 -51 -22 -1 -2 20 -7 37 -13 37 -5 0 -11 -17 -13 -37 -4 -47
-22 -50 -22 -5 0 19 -3 37 -7 40 -12 13 -33 -15 -33 -44 0 -16 -4 -29 -10 -29
-5 0 -10 20 -10 45 l0 46 45 -2 c24 -2 48 0 51 4 15 14 34 -17 34 -54z m100 1
c0 -39 -1 -40 -35 -40 -24 0 -38 5 -42 16 -7 20 24 47 45 39 8 -3 12 0 9 7 -2
7 -14 12 -26 11 -25 -3 -29 14 -3 20 33 7 52 -11 52 -53z m200 0 c0 -39 -1
-40 -34 -40 -23 0 -36 6 -40 17 -8 20 21 46 41 39 7 -3 13 2 13 10 0 12 -6 15
-25 10 -14 -4 -25 -2 -25 3 0 14 32 19 53 9 12 -6 17 -21 17 -48z m-10020 1
c0 -27 -3 -56 -6 -65 -7 -17 -34 -22 -34 -6 0 6 5 10 10 10 6 0 10 25 10 55 0
30 5 55 10 55 6 0 10 -22 10 -49z m98 22 c3 -20 -1 -23 -27 -23 -17 0 -31 -5
-31 -11 0 -7 11 -9 31 -5 22 4 29 2 27 -7 -6 -17 -59 -21 -69 -5 -11 16 -12
62 -2 72 4 4 21 6 38 4 22 -2 31 -9 33 -25z m2102 18 c0 -5 -11 -12 -24 -15
-25 -6 -36 -31 -36 -83 0 -18 -4 -33 -10 -33 -6 0 -10 29 -10 68 l0 68 40 1
c22 1 40 -2 40 -6z m7368 -18 c3 -20 -1 -23 -27 -23 -17 0 -31 -5 -31 -11 0
-7 11 -9 31 -5 22 4 29 2 27 -7 -6 -17 -59 -21 -69 -5 -11 16 -12 62 -2 72 4
4 21 6 38 4 22 -2 31 -9 33 -25z m350 -20 c2 -26 -1 -43 -7 -43 -6 0 -11 15
-11 33 0 19 -3 37 -7 40 -12 13 -33 -15 -33 -44 0 -16 -4 -29 -10 -29 -5 0
-10 21 -10 46 l0 45 38 -3 c36 -3 37 -4 40 -45z m-10481 -10 c-3 -10 -5 -2 -5
17 0 19 2 27 5 18 2 -10 2 -26 0 -35z m980 0 c-3 -10 -5 -2 -5 17 0 19 2 27 5
18 2 -10 2 -26 0 -35z m8730 0 c-3 -10 -5 -2 -5 17 0 19 2 27 5 18 2 -10 2
-26 0 -35z m1450 0 c-3 -10 -5 -2 -5 17 0 19 2 27 5 18 2 -10 2 -26 0 -35z
m160 0 c-3 -10 -5 -2 -5 17 0 19 2 27 5 18 2 -10 2 -26 0 -35z m1320 0 c-3
-10 -5 -2 -5 17 0 19 2 27 5 18 2 -10 2 -26 0 -35z m-1805 15 l-22 -22 -22 22
-22 22 44 0 44 0 -22 -22z m2103 12 c4 -6 1 -18 -6 -26 -11 -13 -14 -13 -27 0
-8 8 -11 19 -8 25 9 14 33 14 41 1z m75 -10 c0 -13 -7 -20 -20 -20 -13 0 -20
7 -20 20 0 13 7 20 20 20 13 0 20 -7 20 -20z m75 10 c4 -6 1 -18 -6 -26 -11
-13 -14 -13 -27 0 -8 8 -11 19 -8 25 9 14 33 14 41 1z m-147 -83 c4 -20 -25
-34 -40 -19 -15 15 -1 44 19 40 10 -2 19 -11 21 -21z m71 9 c17 -20 -13 -43
-34 -26 -12 10 -13 16 -4 26 6 8 15 14 19 14 4 0 13 -6 19 -14z m79 -9 c4 -20
-25 -34 -40 -19 -15 15 -1 44 19 40 10 -2 19 -11 21 -21z m-12460 -174 c-75
-2 -201 -2 -280 0 -79 1 -17 3 137 3 154 0 218 -2 143 -3z m10060 0 c-142 -2
-374 -2 -515 0 -142 1 -26 2 257 2 283 0 399 -1 258 -2z m2792 -297 c0 -3 -4
-8 -10 -11 -5 -3 -10 -1 -10 4 0 6 5 11 10 11 6 0 10 -2 10 -4z m-11769 -47
c33 -33 11 -79 -38 -79 -21 0 -23 5 -23 50 0 43 3 50 20 50 11 0 29 -9 41 -21z
m117 9 c7 -7 12 -24 12 -38 0 -31 -17 -50 -45 -50 -40 0 -57 39 -35 81 12 21
50 25 68 7z m76 -26 c5 -18 12 -32 16 -32 4 0 11 14 16 32 15 53 34 47 34 -11
0 -52 -19 -73 -21 -23 l-1 27 -11 -27 c-6 -16 -14 -28 -17 -28 -3 0 -11 12
-17 28 l-11 27 -1 -27 c-2 -50 -21 -29 -21 23 0 58 19 64 34 11z m1774 18 c5
-13 3 -13 -12 -1 -12 10 -20 11 -28 3 -8 -8 -4 -14 15 -23 32 -14 40 -34 22
-49 -18 -15 -47 -9 -53 10 -5 13 -3 13 12 1 14 -12 19 -12 29 -1 8 9 9 14 1
17 -29 10 -47 31 -41 47 8 21 48 18 55 -4z m75 13 c-13 -2 -23 -11 -23 -19 0
-8 10 -15 23 -15 l22 -2 -22 -4 c-14 -3 -23 -12 -23 -23 0 -11 9 -20 23 -23
16 -3 13 -5 -10 -6 l-33 -1 0 50 0 50 33 -1 c23 -1 26 -3 10 -6z m117 -8 c15
-18 -1 -20 -18 -3 -14 14 -42 -6 -42 -32 0 -28 27 -45 46 -29 14 12 14 14 -3
20 -16 7 -15 8 5 8 16 1 22 -5 22 -22 0 -17 -6 -23 -26 -25 -35 -3 -54 14 -54
47 0 46 43 68 70 36z m1753 8 c-8 -3 -13 -23 -13 -49 0 -24 -4 -44 -10 -44 -5
0 -10 18 -10 40 0 27 -6 42 -17 49 -14 8 -10 10 22 10 22 0 34 -3 28 -6z m80
0 c-13 -2 -23 -11 -23 -19 0 -8 10 -15 23 -15 l22 -2 -22 -4 c-14 -3 -23 -12
-23 -23 0 -11 9 -20 23 -23 16 -3 13 -5 -10 -6 l-33 -1 0 50 0 50 33 -1 c23
-1 26 -3 10 -6z m101 1 c18 -7 22 -39 6 -49 -7 -4 -7 -13 0 -26 14 -26 2 -24
-21 4 l-18 22 -1 -22 c0 -13 -4 -23 -10 -23 -5 0 -10 23 -10 50 0 52 11 61 54
44z m1764 -6 c29 -29 10 -88 -27 -88 -34 0 -51 17 -51 50 0 31 17 50 45 50 12
0 26 -5 33 -12z m77 -73 c16 0 21 9 26 45 l7 45 -2 -50 c-1 -49 -2 -50 -31
-50 -29 0 -30 1 -31 50 l-2 50 7 -45 c5 -36 10 -45 26 -45z m126 39 c19 -45
17 -77 -2 -41 -12 21 -38 22 -45 2 -4 -8 -10 -15 -15 -15 -4 0 -2 15 5 33 7
17 16 40 19 50 10 26 16 21 38 -29z m1763 30 c17 -17 19 -27 10 -61 -5 -17
-14 -23 -33 -23 -34 0 -51 17 -51 50 0 47 42 66 74 34z m78 -72 c17 -3 21 5
32 68 2 14 3 3 2 -25 -1 -49 -2 -50 -31 -50 -29 0 -30 1 -31 50 l-2 50 7 -45
c4 -31 11 -46 23 -48z m85 11 c-2 -16 -4 -3 -4 27 0 30 2 43 4 28 2 -16 2 -40
0 -55z m1761 57 c5 -13 3 -13 -12 -1 -12 10 -20 11 -28 3 -8 -8 -4 -14 16 -23
19 -9 26 -19 24 -33 -4 -26 -40 -33 -58 -11 -14 17 0 21 17 4 12 -12 33 -4 33
11 0 5 -11 12 -25 16 -24 6 -34 32 -18 48 12 11 46 2 51 -14z m75 13 c-13 -2
-23 -11 -23 -19 0 -8 10 -15 23 -15 l22 -2 -22 -4 c-14 -3 -23 -12 -23 -23 0
-11 9 -20 23 -23 16 -3 13 -5 -10 -6 l-33 -1 0 50 0 50 33 -1 c23 -1 26 -3 10
-6z m97 -8 c18 22 24 11 8 -14 -10 -17 -10 -25 0 -41 18 -29 15 -36 -7 -16
-16 15 -19 15 -31 1 -18 -22 -24 -11 -8 14 10 17 10 25 0 41 -18 29 -15 36 7
16 16 -15 19 -15 31 -1z m1755 4 c4 -6 0 -9 -10 -7 -27 5 -28 -16 -3 -27 13
-6 23 -19 23 -30 0 -15 -7 -20 -29 -20 -17 0 -31 6 -34 15 -5 13 -3 13 11 1
23 -18 54 -7 37 14 -7 8 -18 15 -26 15 -20 0 -27 19 -14 35 15 18 36 19 45 4z
m108 -46 c9 -24 13 -43 8 -43 -5 0 -11 7 -15 15 -3 8 -12 15 -21 15 -9 0 -18
-7 -21 -15 -4 -8 -10 -15 -15 -15 -4 0 -2 18 6 41 26 73 31 73 58 2z m94 49
c6 -4 10 -25 10 -47 -2 -37 -4 -40 -34 -43 l-33 -3 0 50 c0 46 2 51 23 51 12
0 27 -4 34 -8z m1543 -177 l0 -115 -115 0 -115 0 0 115 0 115 115 0 115 0 0
-115z m-13110 95 c0 -5 -4 -10 -10 -10 -5 0 -10 5 -10 10 0 6 5 10 10 10 6 0
10 -4 10 -10z m1910 0 c0 -5 -4 -10 -10 -10 -5 0 -10 5 -10 10 0 6 5 10 10 10
6 0 10 -4 10 -10z m3900 0 c0 -5 -4 -10 -10 -10 -5 0 -10 5 -10 10 0 6 5 10
10 10 6 0 10 -4 10 -10z m1920 0 c0 -5 -4 -10 -10 -10 -5 0 -10 5 -10 10 0 6
5 10 10 10 6 0 10 -4 10 -10z m-28 -148 c102 -45 162 -141 162 -257 0 -163
-116 -279 -279 -279 -84 0 -144 23 -200 79 -150 150 -87 404 117 471 55 18
142 12 200 -14z m-7847 -137 c29 -28 31 -42 10 -72 -13 -18 -13 -22 0 -33 20
-17 19 -69 -2 -92 -20 -23 -80 -24 -105 -1 -22 20 -24 76 -3 93 13 11 13 15 0
33 -8 12 -15 27 -15 35 0 20 47 62 70 62 12 0 32 -11 45 -25z m1928 13 c31
-16 46 -39 47 -68 0 -27 -83 -160 -100 -160 -16 0 -12 13 15 53 l26 37 -27 0
c-79 0 -90 115 -14 143 23 8 30 8 53 -5z m2040 -17 c26 -26 38 -88 26 -134
-15 -55 -42 -79 -87 -75 -69 6 -104 103 -66 183 26 55 85 67 127 26z m5825 2
c16 -23 15 -58 -3 -73 -12 -10 -11 -16 7 -40 18 -25 19 -32 9 -59 -17 -40 -62
-56 -102 -36 -16 9 -29 17 -29 19 0 3 -3 11 -6 20 -9 23 18 20 39 -4 9 -11 23
-20 31 -20 17 0 46 27 46 42 0 19 -32 48 -52 48 -27 0 -17 23 13 30 17 4 25
14 27 33 3 21 -2 28 -23 33 -17 4 -32 1 -44 -10 -22 -20 -31 -20 -31 -2 0 43
89 57 118 19z m-6028 -98 c0 -96 -3 -115 -15 -115 -12 0 -15 17 -15 96 0 83
-2 95 -15 84 -8 -6 -20 -8 -26 -4 -9 5 -3 14 17 31 51 40 54 34 54 -92z m1980
0 c0 -96 -3 -115 -15 -115 -12 0 -15 17 -15 95 0 92 -1 95 -19 85 -32 -16 -34
6 -4 29 50 37 53 31 53 -94z m140 0 c0 -96 -3 -115 -15 -115 -12 0 -15 17 -15
95 0 92 -1 95 -19 85 -32 -16 -34 6 -4 29 50 37 53 31 53 -94z m3730 0 c0 -96
-3 -115 -15 -115 -12 0 -15 17 -15 95 0 92 -1 95 -20 83 -32 -20 -37 2 -7 28
52 45 57 37 57 -91z m1930 0 c0 -96 -3 -115 -15 -115 -12 0 -15 17 -15 96 0
83 -2 95 -15 84 -8 -6 -20 -8 -26 -4 -9 5 -3 14 17 31 51 40 54 34 54 -92z
m200 40 c0 -43 4 -75 10 -75 6 0 10 -7 10 -15 0 -8 -4 -15 -10 -15 -5 0 -10
-11 -10 -25 0 -16 -6 -25 -15 -25 -9 0 -15 9 -15 25 0 24 -3 25 -55 25 -36 0
-55 4 -55 12 0 6 23 47 51 90 34 51 58 78 70 78 17 0 19 -8 19 -75z m-13436
-521 c9 -3 16 -10 16 -15 0 -6 -9 -5 -21 1 -15 9 -24 8 -35 -1 -29 -24 -5 -77
30 -63 21 8 20 21 -1 27 -11 3 -7 5 10 6 22 1 27 -3 27 -22 0 -20 -5 -24 -32
-25 -41 -1 -58 13 -58 47 0 42 25 60 64 45z m77 -31 l13 -38 14 38 c21 52 32
46 31 -15 -1 -47 -2 -49 -8 -18 l-6 35 -12 -32 c-7 -18 -15 -33 -18 -33 -3 0
-11 15 -18 33 l-12 32 -6 -35 c-6 -31 -7 -29 -8 18 -1 61 12 68 30 15z m137
26 c-12 -7 -19 -24 -20 -52 l-1 -42 -4 40 c-2 22 -11 46 -20 53 -14 10 -11 12
23 12 31 -1 36 -3 22 -11z m150 -1 c7 -7 12 -24 12 -38 0 -51 -52 -69 -72 -25
-22 49 25 98 60 63z m78 0 c5 -7 9 -29 9 -48 0 -30 -3 -35 -24 -35 -13 0 -27
7 -29 15 -5 13 -3 13 12 1 22 -18 34 -6 18 19 -8 14 -9 20 -1 20 6 0 9 6 6 13
-2 6 -12 11 -22 9 -10 -2 -14 1 -10 7 9 15 31 14 41 -1z m-173 -45 c-7 -2 -19
-2 -25 0 -7 3 -2 5 12 5 14 0 19 -2 13 -5z m13901 -167 c27 -35 48 -68 47 -73
-1 -4 -22 -36 -48 -71 l-47 -62 -6661 0 -6661 0 -49 66 c-28 36 -50 67 -50 69
0 2 22 33 50 69 l49 66 6661 0 6661 0 48 -64z m-7871 -247 c34 -16 47 -49 47
-124 0 -75 -13 -108 -47 -124 -17 -8 -265 -11 -848 -11 -583 0 -831 3 -848 11
-34 16 -47 49 -47 124 0 73 13 108 44 123 31 15 1667 16 1699 1z m1950 0 c34
-16 47 -49 47 -124 0 -75 -13 -108 -47 -124 -17 -8 -267 -11 -853 -11 -586 0
-836 3 -853 11 -34 16 -47 49 -47 124 0 73 13 108 44 123 31 15 1677 16 1709
1z m3880 0 c34 -16 47 -49 47 -124 0 -75 -13 -108 -47 -124 -17 -8 -265 -11
-848 -11 -583 0 -831 3 -848 11 -34 16 -47 49 -47 124 0 73 13 108 44 123 31
15 1667 16 1699 1z m1940 0 c34 -16 47 -49 47 -124 0 -75 -13 -108 -47 -124
-17 -8 -265 -11 -848 -11 -583 0 -831 3 -848 11 -34 16 -47 49 -47 124 0 73
13 108 44 123 31 15 1667 16 1699 1z m709 -214 c-4 -50 -32 -66 -32 -18 0 20
23 63 34 63 1 0 0 -20 -2 -45z m132 20 c6 -25 -7 -65 -22 -65 -4 0 -7 20 -7
45 0 49 19 62 29 20z m-2781 -106 c34 -16 47 -49 47 -124 0 -75 -13 -108 -47
-124 -17 -8 -265 -11 -848 -11 -583 0 -831 3 -848 11 -34 16 -47 49 -47 124 0
73 13 108 44 123 31 15 1667 16 1699 1z m-9313 -68 c-20 -4 -42 -11 -50 -15
-8 -4 -6 0 4 8 11 9 34 15 50 15 31 -1 31 -1 -4 -8z m163 -6 c-3 -9 -8 -14
-10 -11 -3 3 -2 9 2 15 9 16 15 13 8 -4z m527 -25 c10 0 25 -3 34 -6 11 -4 16
0 17 12 1 17 2 17 6 2 5 -20 43 -25 44 -5 0 10 2 10 6 0 2 -7 20 -13 39 -13
20 0 34 5 35 13 0 10 2 10 6 0 2 -8 22 -13 44 -13 24 0 39 5 39 13 0 8 2 9 8
1 10 -16 92 -16 92 -1 0 7 4 6 10 -3 9 -13 11 -13 20 0 6 10 10 11 10 3 0 -9
22 -13 75 -13 53 0 75 4 76 13 0 10 2 10 6 0 3 -8 25 -13 59 -13 36 0 54 4 54
13 0 8 3 9 8 1 4 -6 27 -12 51 -12 60 -3 66 -12 8 -12 -27 0 -47 -5 -47 -11 0
-5 4 -7 10 -4 6 4 7 -1 3 -11 -6 -16 -8 -15 -16 4 -9 20 -16 21 -127 21 -102
-1 -117 -3 -116 -17 1 -19 -31 -29 -46 -14 -6 6 0 8 18 4 20 -4 25 -1 22 9 -4
11 -40 15 -171 17 l-167 2 -1 -22 -2 -23 -4 23 c-3 14 -12 22 -24 22 -13 0
-19 -7 -20 -22 l-2 -23 -4 23 c-4 18 -11 22 -39 22 -42 0 -47 -27 -6 -33 25
-4 25 -4 -5 -6 -27 -1 -33 3 -33 19 0 17 -7 20 -45 20 -40 0 -45 -3 -46 -22
l-2 -23 -4 23 c-2 12 -9 22 -14 22 -5 0 -10 -10 -10 -22 l-2 -23 -4 23 c-3 14
-12 22 -25 22 -15 0 -19 -5 -15 -20 3 -11 1 -18 -4 -14 -5 3 -9 12 -9 20 0 12
-29 14 -172 14 -94 0 -169 2 -166 5 3 3 47 6 99 6 61 0 96 5 101 12 6 9 8 9 8
0 0 -8 15 -13 40 -13 25 0 40 5 40 13 0 9 2 9 8 -1 11 -16 122 -14 122 2 0 7
10 12 21 13 21 2 21 1 3 -12 -17 -13 -15 -14 29 -15 44 0 47 2 48 28 2 23 2
24 6 5 3 -14 12 -23 23 -23z m-662 -17 c-31 -30 -40 -35 -50 -25 -11 11 -10
12 2 7 10 -3 27 6 45 25 16 16 31 30 34 30 3 0 -11 -17 -31 -37z m807 27 c3
-6 -1 -7 -9 -4 -18 7 -21 14 -7 14 6 0 13 -4 16 -10z m460 0 c3 -6 -1 -7 -9
-4 -18 7 -21 14 -7 14 6 0 13 -4 16 -10z m-1315 -92 c19 -10 28 -18 19 -18
-33 0 -69 40 -68 73 l2 32 6 -35 c5 -27 14 -39 41 -52z m87 50 c-3 -8 -6 -5
-6 6 -1 11 2 17 5 13 3 -3 4 -12 1 -19z m146 -9 c20 13 21 13 8 -2 -7 -10 -21
-17 -31 -17 -10 0 -24 7 -31 17 -13 15 -12 15 9 2 19 -12 25 -12 45 0z m90
-11 c-2 -5 -13 -8 -23 -8 -10 0 -21 3 -23 8 -3 4 8 7 23 7 15 0 26 -3 23 -7z
m92 2 c-3 -5 -14 -10 -23 -9 -14 0 -13 2 3 9 27 11 27 11 20 0z m530 0 c-3 -5
-14 -10 -23 -9 -14 0 -13 2 3 9 27 11 27 11 20 0z m116 -8 c-7 -2 -18 1 -23 6
-8 8 -4 9 13 5 13 -4 18 -8 10 -11z m254 8 c-3 -5 -14 -10 -23 -9 -14 0 -13 2
3 9 27 11 27 11 20 0z m-98 -6 c-3 -3 -12 -4 -19 -1 -8 3 -5 6 6 6 11 1 17 -2
13 -5z m-1147 -18 c0 -2 -7 -7 -16 -10 -8 -3 -12 -2 -9 4 6 10 25 14 25 6z
m11968 -303 c2 -8 -5 -13 -17 -13 -21 0 -35 13 -24 24 10 10 36 3 41 -11z m64
-20 c29 -26 22 -64 -25 -125 l-43 -55 -42 49 c-42 50 -53 83 -29 91 6 2 20 -9
29 -25 21 -33 57 -37 83 -8 17 18 17 32 0 73 -9 22 3 22 27 0z m-14692 -220
c0 -5 -7 -17 -15 -27 -8 -11 -15 -30 -15 -43 0 -13 -5 -23 -11 -23 -11 0 -10
6 7 67 4 15 1 22 -13 26 -10 3 -4 5 15 6 17 0 32 -2 32 -6z m114 -40 c20 -59
20 -60 -4 -38 -19 17 -21 17 -40 0 -11 -10 -20 -14 -20 -9 0 17 33 94 40 94 5
0 15 -21 24 -47z m67 10 l13 -38 14 38 c21 52 32 46 31 -15 -1 -47 -2 -49 -8
-18 l-6 35 -12 -32 c-7 -18 -15 -33 -18 -33 -3 0 -11 15 -18 33 l-12 32 -6
-35 c-6 -31 -7 -29 -8 18 -1 61 12 68 30 15z m-190 -602 c9 -45 1 -63 -25 -59
-16 2 -21 11 -23 38 -2 48 4 62 24 58 10 -2 20 -17 24 -37z m123 -8 c20 -59
20 -60 -4 -38 -19 17 -21 17 -40 0 -11 -10 -20 -14 -20 -9 0 17 33 94 40 94 5
0 15 -21 24 -47z m67 10 l13 -38 14 38 c21 52 32 46 31 -15 -1 -47 -2 -49 -8
-18 l-6 35 -12 -32 c-7 -18 -15 -33 -18 -33 -3 0 -11 15 -18 33 l-12 32 -6
-35 c-6 -31 -7 -29 -8 18 -1 61 12 68 30 15z m8749 -228 c-20 -52 17 -91 69
-73 13 5 29 5 35 0 6 -5 30 -7 53 -4 36 3 42 7 45 30 2 16 10 28 21 30 13 3
17 -3 17 -26 0 -27 4 -30 38 -34 59 -7 72 0 72 38 0 38 -21 54 -49 37 -15 -9
-41 4 -41 22 0 3 37 5 82 5 64 0 79 -3 70 -12 -21 -21 -14 -66 13 -84 23 -15
27 -15 50 0 27 18 32 11 11 -16 -12 -16 -38 -18 -283 -18 -292 0 -290 0 -307
56 -11 35 28 74 74 74 38 0 39 -1 30 -25z m240 15 c0 -5 -13 -10 -29 -10 -17
0 -33 -4 -36 -10 -4 -6 -13 -5 -25 3 -16 9 -24 9 -39 0 -16 -10 -20 -9 -24 8
-5 18 1 19 74 19 46 0 79 -4 79 -10z m498 -8 c2 -7 -2 -10 -12 -6 -11 4 -19
-2 -25 -17 -8 -23 -8 -23 -15 -3 -5 18 -14 21 -52 20 -28 -1 -48 -7 -54 -16
-5 -8 -10 -10 -10 -4 0 32 -65 26 -75 -6 -3 -11 -9 -19 -13 -18 -4 1 -15 -2
-26 -7 -12 -5 -21 -3 -27 6 -11 18 -11 21 1 39 8 12 13 13 30 3 28 -18 33 -16
27 7 -5 20 -2 21 121 18 89 -2 127 -7 130 -16z m39 -22 c1 -22 -2 -40 -8 -40
-5 0 -9 18 -9 40 0 22 4 40 8 40 4 0 8 -18 9 -40z m71 34 l23 -7 -23 -11 c-12
-6 -26 -22 -30 -36 -7 -21 -7 -21 -3 6 2 17 -1 36 -8 43 -13 13 3 15 41 5z
m-773 -30 c14 -9 32 -13 42 -10 14 6 15 5 6 -5 -7 -7 -20 -13 -30 -14 -10 0
-24 -5 -31 -9 -19 -11 -42 1 -42 22 0 35 18 40 55 16z m209 -10 c13 -5 13 -8
1 -20 -19 -19 -25 -18 -25 6 0 22 1 23 24 14z m266 -20 c0 -8 -7 -14 -15 -14
-15 0 -21 21 -9 33 10 9 24 -2 24 -19z m80 1 c0 -8 -4 -15 -10 -15 -5 0 -10 7
-10 15 0 8 5 15 10 15 6 0 10 -7 10 -15z m97 -7 c-3 -8 -6 -5 -6 6 -1 11 2 17
5 13 3 -3 4 -12 1 -19z m4983 -13 c0 -18 6 -24 25 -27 33 -4 33 -22 1 -26 -18
-2 -26 -10 -28 -30 -2 -15 -7 -27 -13 -27 -5 0 -11 12 -13 27 -3 21 -9 27 -30
30 -33 4 -32 22 3 26 18 3 25 9 25 26 0 12 3 26 6 29 12 11 24 -3 24 -28z
m-5570 11 c0 -3 -4 -8 -10 -11 -5 -3 -10 -1 -10 4 0 6 5 11 10 11 6 0 10 -2
10 -4z m190 0 c0 -3 -4 -8 -10 -11 -5 -3 -10 -1 -10 4 0 6 5 11 10 11 6 0 10
-2 10 -4z m547 -2 c-3 -3 -12 -4 -19 -1 -8 3 -5 6 6 6 11 1 17 -2 13 -5z
m-352 -43 c-3 -6 -11 -11 -17 -11 -6 0 -6 6 2 15 14 17 26 13 15 -4z m-9461
-264 c13 -20 -8 -67 -34 -75 -11 -4 -10 1 4 17 19 21 19 21 -1 21 -25 0 -38
27 -22 47 15 17 38 13 53 -10z m120 -24 c20 -59 20 -60 -4 -38 -19 17 -21 17
-40 0 -11 -10 -20 -14 -20 -9 0 17 33 94 40 94 5 0 15 -21 24 -47z m67 10 l13
-38 14 38 c21 52 32 46 31 -15 -1 -47 -2 -49 -8 -18 l-6 35 -12 -32 c-7 -18
-15 -33 -18 -33 -3 0 -11 15 -18 33 l-12 32 -6 -35 c-6 -31 -7 -29 -8 18 -1
61 12 68 30 15z m-281 -619 c0 -24 -4 -44 -10 -44 -5 0 -10 16 -10 35 0 19 -5
35 -11 35 -8 0 -8 5 1 15 19 23 30 8 30 -41z m92 31 c22 -49 -25 -98 -60 -63
-26 26 -6 88 29 88 11 0 24 -11 31 -25z m122 -22 c20 -59 20 -60 -4 -38 -19
17 -21 17 -40 0 -11 -10 -20 -14 -20 -9 0 17 33 94 40 94 5 0 15 -21 24 -47z
m67 10 l13 -38 14 38 c21 52 32 46 31 -15 -1 -47 -2 -49 -8 -18 l-6 35 -12
-32 c-7 -18 -15 -33 -18 -33 -3 0 -11 15 -18 33 l-12 32 -6 -35 c-6 -31 -7
-29 -8 18 -1 61 12 68 30 15z m3219 -124 c-25 -46 17 -97 66 -79 11 5 27 4 35
-1 9 -4 25 -5 37 -2 17 4 22 13 22 39 0 38 -22 54 -50 37 -13 -9 -19 -7 -28 8
-12 18 -8 19 75 19 53 0 83 -4 78 -9 -6 -5 -21 -11 -35 -13 -21 -2 -26 -9 -28
-40 -2 -28 1 -38 12 -38 8 0 16 11 18 27 4 36 26 41 30 6 3 -24 9 -29 42 -34
60 -10 76 -2 76 37 0 35 -3 37 -54 38 -16 1 -31 7 -33 14 -4 9 15 12 71 12
l76 0 -10 -25 c-21 -55 23 -96 74 -69 14 7 26 9 26 5 0 -13 36 -19 54 -9 20
11 21 51 1 68 -20 17 -65 -2 -65 -26 0 -10 -3 -14 -7 -11 -3 4 -12 2 -19 -4
-19 -16 -44 -4 -44 21 0 24 26 38 43 21 17 -17 30 -13 24 9 -5 19 0 20 108 20
115 0 145 -4 145 -22 0 -5 -5 -6 -12 -2 -6 4 -17 -1 -25 -12 -12 -16 -15 -17
-23 -4 -6 9 -26 15 -55 16 l-45 2 0 -39 c0 -22 5 -39 10 -39 6 0 10 9 10 19 0
11 5 23 10 26 6 4 10 -5 10 -19 0 -40 30 -34 31 7 l1 32 10 -32 c13 -41 40
-43 55 -5 l11 27 1 -27 c2 -42 31 -37 31 5 0 22 3 28 9 18 13 -20 -2 -54 -30
-68 -18 -10 -125 -13 -416 -13 l-392 0 -20 26 c-12 15 -21 32 -21 39 0 7 9 24
21 39 16 20 29 26 60 26 37 0 39 -1 29 -21z m60 -8 c0 -5 12 -12 26 -15 26 -7
27 -16 2 -20 -7 -1 -19 -5 -26 -10 -28 -17 -59 24 -35 47 9 10 33 8 33 -2z
m230 -21 c10 -6 11 -10 3 -10 -7 0 -13 -7 -13 -16 0 -8 -4 -12 -10 -9 -12 7
-14 45 -2 45 4 0 14 -5 22 -10z m258 -12 c-6 -18 -28 -21 -28 -4 0 9 7 16 16
16 9 0 14 -5 12 -12z m-408 -12 c0 -3 -4 -8 -10 -11 -5 -3 -10 -1 -10 4 0 6 5
11 10 11 6 0 10 -2 10 -4z m3752 -288 c-38 -38 12 -113 58 -88 14 8 25 8 33 2
7 -6 24 -8 40 -5 22 4 27 11 27 33 0 15 -7 33 -15 40 -17 14 -47 10 -53 -9 -3
-9 2 -11 19 -7 23 7 23 6 4 -5 -11 -7 -27 -13 -35 -14 -8 -1 -23 -6 -34 -10
-12 -5 -21 -3 -27 6 -11 18 -11 21 1 39 8 12 13 13 30 3 27 -18 33 -16 27 7
-5 19 0 20 74 20 46 0 79 -4 79 -10 0 -5 -13 -10 -30 -10 -28 0 -30 -2 -30
-40 0 -47 15 -53 24 -10 7 38 34 40 38 3 2 -22 10 -29 35 -34 55 -11 83 -1 83
31 0 15 -7 33 -15 40 -17 14 -47 10 -53 -9 -3 -10 2 -11 19 -6 27 9 25 6 -15
-19 l-29 -18 6 29 c3 17 1 35 -6 42 -8 8 10 11 73 11 65 0 81 -3 72 -12 -20
-20 -14 -66 11 -82 23 -15 67 -12 67 5 0 5 11 2 24 -7 18 -11 30 -13 42 -6 9
5 25 7 35 5 15 -4 19 0 19 21 0 14 5 26 10 26 6 0 10 -11 10 -25 0 -36 30 -33
31 3 l1 27 10 -27 c13 -37 36 -35 53 5 l14 32 1 -32 c0 -41 27 -45 33 -5 4 26
4 26 3 -3 -2 -53 -12 -55 -445 -55 -353 0 -396 2 -413 17 -44 39 0 113 69 113
29 0 34 -3 25 -12z m728 2 c13 -8 13 -10 -1 -10 -9 0 -22 -7 -29 -15 -10 -13
-15 -13 -21 -3 -10 15 -95 22 -104 8 -4 -6 -12 -6 -24 2 -23 14 -51 4 -58 -22
-3 -11 -9 -18 -13 -15 -5 3 -11 1 -15 -5 -3 -5 -15 -10 -26 -10 -14 0 -19 7
-19 30 0 23 5 30 19 30 11 0 21 -5 23 -12 2 -6 10 -8 17 -4 9 6 9 11 0 22 -10
12 7 14 112 14 68 0 131 -5 139 -10z m-190 -55 c0 -8 -4 -15 -10 -15 -5 0 -10
7 -10 15 0 8 5 15 10 15 6 0 10 -7 10 -15z m-410 -9 c0 -3 -4 -8 -10 -11 -5
-3 -10 -1 -10 4 0 6 5 11 10 11 6 0 10 -2 10 -4z m190 0 c0 -3 -4 -8 -10 -11
-5 -3 -10 -1 -10 4 0 6 5 11 10 11 6 0 10 -2 10 -4z m-7682 -88 c-1 -44 -2
-46 -5 -15 -3 26 -9 37 -21 37 -15 1 -15 2 2 15 11 8 21 15 23 15 2 0 2 -24 1
-52z m60 0 c-1 -44 -2 -46 -5 -15 -3 26 -9 37 -21 37 -15 1 -15 2 2 15 11 8
21 15 23 15 2 0 2 -24 1 -52z m126 5 c20 -59 20 -60 -4 -38 -19 17 -21 17 -40
0 -11 -10 -20 -14 -20 -9 0 17 33 94 40 94 5 0 15 -21 24 -47z m68 10 l15 -38
16 38 c21 48 37 40 37 -19 0 -50 -19 -61 -21 -11 l-1 32 -10 -32 c-13 -40 -21
-41 -38 -5 l-13 27 -8 -30 c-5 -25 -7 -21 -8 23 -1 61 10 67 31 15z m5458 -24
c-25 -46 17 -97 66 -79 11 5 27 4 35 -1 9 -4 25 -5 37 -2 17 4 22 13 22 39 0
38 -22 54 -50 37 -13 -9 -19 -7 -28 8 -12 18 -8 19 75 19 53 0 83 -4 78 -9 -6
-5 -21 -11 -35 -13 -21 -2 -26 -9 -28 -40 -2 -28 1 -38 12 -38 8 0 16 11 18
27 4 36 26 41 30 6 3 -24 9 -29 42 -34 60 -10 76 -2 76 37 0 35 -3 37 -54 38
-16 1 -31 7 -33 14 -4 9 15 12 71 12 l76 0 -10 -25 c-18 -46 10 -84 55 -75 6
1 4 -5 -3 -12 -10 -10 -73 -14 -266 -16 -232 -3 -253 -2 -268 15 -28 32 -30
58 -7 86 16 21 29 27 60 27 37 0 39 -1 29 -21z m60 -8 c0 -5 12 -12 26 -15 26
-7 27 -16 2 -20 -7 -1 -19 -5 -26 -10 -28 -17 -59 24 -35 47 9 10 33 8 33 -2z
m405 -21 c0 -29 -32 -41 -41 -16 -9 24 4 48 23 44 12 -2 18 -12 18 -28z m-175
0 c10 -6 11 -10 3 -10 -7 0 -13 -7 -13 -16 0 -8 -4 -12 -10 -9 -12 7 -14 45
-2 45 4 0 14 -5 22 -10z m-150 -24 c0 -3 -4 -8 -10 -11 -5 -3 -10 -1 -10 4 0
6 5 11 10 11 6 0 10 -2 10 -4z m-728 -88 c-38 -38 12 -113 58 -88 14 8 25 8
33 2 7 -6 24 -8 40 -5 22 4 27 11 27 33 0 15 -7 33 -15 40 -17 14 -47 10 -53
-9 -3 -9 2 -11 19 -7 23 7 23 6 4 -5 -11 -7 -27 -13 -35 -14 -8 -1 -23 -6 -34
-10 -12 -5 -21 -3 -27 6 -11 18 -11 21 1 39 8 12 13 13 30 3 27 -18 33 -16 27
7 -5 19 0 20 74 20 46 0 79 -4 79 -10 0 -5 -13 -10 -30 -10 -28 0 -30 -2 -30
-40 0 -47 15 -53 24 -10 7 38 34 40 38 3 2 -22 10 -29 35 -34 55 -11 83 -1 83
31 0 15 -7 33 -15 40 -17 14 -47 10 -53 -9 -3 -10 2 -11 19 -6 27 9 25 6 -15
-19 l-29 -18 6 29 c3 17 1 35 -6 42 -8 8 10 11 73 11 65 0 81 -3 72 -12 -20
-20 -14 -66 11 -82 23 -15 67 -12 67 5 0 5 11 2 24 -7 18 -11 30 -13 42 -6 9
5 25 7 35 5 15 -4 19 0 19 21 0 14 5 26 10 26 6 0 10 -11 10 -25 0 -36 30 -33
31 3 l1 27 10 -27 c13 -37 36 -35 53 5 l14 32 1 -32 c0 -23 5 -33 15 -33 10 0
15 11 16 33 l1 32 7 -30 c5 -24 12 -30 32 -31 14 -1 31 -4 37 -8 34 -21 68 48
37 74 -20 16 -61 -1 -68 -27 -2 -10 -3 -6 -1 8 2 14 -2 31 -9 38 -8 8 15 11
93 11 146 0 147 -1 152 -62 3 -45 1 -51 -20 -59 -13 -5 -264 -9 -558 -9 -521
0 -534 0 -554 20 -24 24 -26 67 -3 92 11 12 30 18 62 18 35 0 42 -3 33 -12z
m733 2 c3 -5 0 -10 -8 -10 -8 0 -20 -7 -27 -15 -10 -13 -15 -13 -21 -3 -10 15
-95 22 -104 8 -4 -6 -12 -6 -24 2 -23 14 -51 4 -58 -22 -3 -11 -9 -18 -13 -15
-5 3 -11 1 -15 -5 -3 -5 -15 -10 -26 -10 -14 0 -19 7 -19 30 0 23 5 30 19 30
11 0 21 -5 23 -12 2 -6 10 -8 17 -4 9 6 9 11 0 22 -10 12 8 14 119 14 76 0
133 -4 137 -10z m27 -12 c-7 -7 -12 -8 -12 -2 0 14 12 26 19 19 2 -3 -1 -11
-7 -17z m-222 -43 c0 -8 -4 -15 -10 -15 -5 0 -10 7 -10 15 0 8 5 15 10 15 6 0
10 -7 10 -15z m-410 -9 c0 -3 -4 -8 -10 -11 -5 -3 -10 -1 -10 4 0 6 5 11 10
11 6 0 10 -2 10 -4z m190 0 c0 -3 -4 -8 -10 -11 -5 -3 -10 -1 -10 4 0 6 5 11
10 11 6 0 10 -2 10 -4z m547 -2 c-3 -3 -12 -4 -19 -1 -8 3 -5 6 6 6 11 1 17
-2 13 -5z m1663 -99 c-20 -52 17 -91 69 -73 13 5 29 5 35 0 6 -5 30 -7 53 -4
36 3 42 7 45 30 2 16 10 28 21 30 13 3 17 -3 17 -28 0 -27 3 -31 23 -29 12 2
27 1 32 -3 6 -3 22 -4 38 -1 21 4 27 11 27 32 0 48 -43 68 -71 34 -13 -15 -12
-16 9 -11 29 8 28 4 -4 -17 l-27 -17 6 29 c3 17 1 35 -6 42 -8 8 10 11 73 11
65 0 81 -3 72 -12 -21 -21 -14 -66 13 -84 13 -8 30 -12 37 -8 11 6 11 4 0 -7
-10 -11 -66 -15 -271 -17 -237 -3 -258 -2 -273 15 -28 32 -30 58 -7 86 16 21
29 27 59 27 38 0 39 -1 30 -25z m240 15 c0 -5 -13 -10 -29 -10 -17 0 -33 -4
-36 -10 -4 -6 -13 -5 -25 3 -16 9 -24 9 -39 0 -16 -10 -20 -9 -24 8 -5 18 1
19 74 19 46 0 79 -4 79 -10z m-165 -26 c14 -9 32 -13 42 -10 14 6 15 5 6 -5
-7 -7 -20 -13 -30 -14 -10 0 -24 -5 -31 -9 -19 -11 -42 1 -42 22 0 35 18 40
55 16z m404 -14 c9 -13 11 -21 4 -17 -6 4 -14 3 -18 -3 -17 -28 -51 3 -38 35
8 22 32 15 52 -15z m-339 -24 c0 -3 -4 -8 -10 -11 -5 -3 -10 -1 -10 4 0 6 5
11 10 11 6 0 10 -2 10 -4z m190 0 c0 -3 -4 -8 -10 -11 -5 -3 -10 -1 -10 4 0 6
5 11 10 11 6 0 10 -2 10 -4z m-7992 -238 c-1 -44 -2 -46 -5 -15 -3 26 -9 37
-21 37 -15 1 -15 2 2 15 11 8 21 15 23 15 2 0 2 -24 1 -52z m79 35 c4 -9 -1
-29 -9 -44 -15 -26 -15 -28 0 -32 9 -3 2 -5 -16 -6 l-34 -1 26 31 c14 17 26
34 26 39 0 14 -18 21 -25 10 -3 -5 -11 -10 -17 -10 -7 0 -6 6 2 15 16 20 39
19 47 -2z m123 2 c17 -20 5 -45 -20 -45 -12 0 -24 -9 -30 -22 -7 -18 -9 -12
-9 30 -1 48 1 52 23 52 13 0 29 -7 36 -15z m61 -22 l13 -38 14 38 c21 52 32
46 31 -15 -1 -47 -2 -49 -8 -18 l-6 35 -12 -32 c-7 -18 -15 -33 -18 -33 -3 0
-11 15 -18 33 l-12 32 -6 -35 c-6 -31 -7 -29 -8 18 -1 61 12 68 30 15z m5892
-64 c41 -18 47 -49 47 -224 0 -175 -6 -206 -47 -224 -17 -8 -264 -11 -843 -11
-579 0 -826 3 -843 11 -41 18 -47 49 -47 224 0 172 6 205 44 223 31 15 1657
16 1689 1z m-6073 -555 c0 -24 -4 -44 -10 -44 -5 0 -10 16 -10 35 0 19 -5 35
-11 35 -8 0 -8 5 1 15 19 23 30 8 30 -41z m118 47 c21 -13 10 -46 -16 -49 -14
-2 -22 -10 -22 -23 0 -10 -4 -19 -10 -19 -5 0 -10 23 -10 50 0 45 2 50 23 50
12 0 28 -4 35 -9z m63 -28 l13 -38 14 38 c21 52 32 46 31 -15 -1 -47 -2 -49
-8 -18 l-6 35 -12 -32 c-7 -18 -15 -33 -18 -33 -3 0 -11 15 -18 33 l-12 32 -6
-35 c-6 -31 -7 -29 -8 18 -1 61 12 68 30 15z m3219 -324 c-25 -46 17 -97 66
-79 11 5 27 4 35 -1 9 -4 25 -5 37 -2 17 4 22 13 22 39 0 38 -22 54 -50 37
-13 -9 -19 -7 -28 8 -12 18 -8 19 75 19 53 0 83 -4 78 -9 -6 -5 -21 -11 -35
-13 -21 -2 -26 -9 -28 -40 -2 -28 1 -38 12 -38 8 0 16 11 18 27 4 36 26 41 30
6 3 -24 9 -29 42 -34 60 -10 76 -2 76 37 0 35 -3 37 -54 38 -16 1 -31 7 -33
14 -4 9 15 12 71 12 l76 0 -10 -25 c-21 -55 23 -96 74 -69 14 7 26 9 26 5 0
-13 36 -19 54 -9 20 11 21 51 1 68 -20 17 -65 -2 -65 -26 0 -10 -3 -14 -7 -11
-3 4 -12 2 -19 -4 -19 -16 -44 -4 -44 21 0 24 26 38 43 21 17 -17 30 -13 24 9
-5 19 0 20 108 20 115 0 145 -4 145 -22 0 -5 -5 -6 -12 -2 -6 4 -17 -1 -25
-12 -12 -16 -15 -17 -23 -4 -6 9 -26 15 -55 16 l-45 2 0 -39 c0 -22 5 -39 10
-39 6 0 10 9 10 19 0 11 5 23 10 26 6 4 10 -5 10 -19 0 -40 30 -34 31 7 l1 32
10 -32 c13 -41 40 -43 55 -5 l11 27 1 -27 c2 -42 31 -37 31 5 0 22 3 28 9 18
13 -20 -2 -54 -30 -68 -18 -10 -124 -13 -410 -13 -359 0 -388 1 -409 18 -50
40 -16 112 52 112 36 0 38 -1 28 -21z m1940 -4 c-20 -52 17 -91 69 -73 13 5
29 5 35 0 6 -5 30 -7 53 -4 36 3 42 7 45 30 2 16 10 28 21 30 13 3 17 -3 17
-28 0 -27 3 -31 23 -29 12 2 27 1 32 -3 6 -3 22 -4 38 -1 21 4 27 11 27 32 0
48 -43 68 -71 34 -13 -15 -12 -16 9 -11 29 8 28 4 -4 -17 l-27 -17 6 29 c3 17
1 35 -6 42 -8 8 10 11 73 11 65 0 81 -3 72 -12 -21 -21 -14 -66 13 -84 23 -15
27 -15 49 0 16 10 26 12 28 4 5 -15 59 -13 69 3 6 10 9 11 9 2 0 -7 7 -13 15
-13 9 0 15 9 15 25 0 14 5 25 10 25 6 0 10 -11 10 -25 0 -32 30 -34 31 -2 l0
22 11 -22 c16 -32 36 -28 52 10 l14 32 1 -32 c1 -18 6 -33 11 -33 6 0 10 15
10 33 0 22 3 28 9 18 13 -20 -2 -54 -30 -68 -18 -10 -125 -13 -415 -13 -376 0
-392 1 -409 20 -41 46 -9 110 56 110 37 0 38 -1 29 -25z m240 15 c0 -5 -13
-10 -29 -10 -17 0 -33 -4 -36 -10 -4 -6 -13 -5 -25 3 -16 9 -24 9 -39 0 -16
-10 -20 -9 -24 8 -5 18 1 19 74 19 46 0 79 -4 79 -10z m484 4 c9 -3 16 -10 16
-15 0 -4 -6 -6 -14 -3 -9 3 -17 -3 -22 -18 l-7 -23 -8 23 c-9 23 -29 31 -29
11 0 -8 -4 -8 -14 0 -17 14 -55 9 -67 -10 -5 -8 -9 -9 -9 -3 0 32 -65 26 -75
-6 -3 -11 -9 -19 -13 -18 -4 1 -15 -2 -26 -7 -12 -5 -21 -3 -27 6 -11 18 -11
21 1 39 8 12 13 13 30 3 27 -18 33 -16 27 7 -5 19 0 20 108 20 62 0 120 -3
129 -6z m3166 -15 c-25 -46 17 -97 66 -79 11 5 27 4 35 -1 9 -4 25 -5 37 -2
17 4 22 13 22 39 0 38 -22 54 -50 37 -13 -9 -19 -7 -28 8 -12 18 -8 19 75 19
53 0 83 -4 78 -9 -6 -5 -21 -11 -35 -13 -21 -2 -26 -9 -28 -40 -2 -28 1 -38
12 -38 8 0 16 11 18 27 4 36 26 41 30 6 3 -24 9 -29 42 -34 60 -10 76 -2 76
37 0 35 -3 37 -54 38 -16 1 -31 7 -33 14 -4 9 15 12 71 12 l76 0 -10 -25 c-21
-55 23 -96 74 -69 14 7 26 9 26 5 0 -13 36 -19 54 -9 20 11 21 51 1 68 -20 17
-65 -2 -65 -26 0 -10 -3 -14 -7 -11 -3 4 -12 2 -19 -4 -19 -16 -44 -4 -44 21
0 24 26 38 43 21 17 -17 30 -13 24 9 -5 19 0 20 108 20 115 0 145 -4 145 -22
0 -5 -5 -6 -12 -2 -6 4 -17 -1 -25 -12 -12 -16 -15 -17 -23 -4 -6 9 -26 15
-55 16 l-45 2 0 -39 c0 -22 5 -39 10 -39 6 0 10 9 10 19 0 11 5 23 10 26 6 4
10 -5 10 -19 0 -40 30 -34 31 7 l1 32 10 -32 c13 -41 40 -43 55 -5 l11 27 1
-27 c2 -42 31 -37 31 5 0 22 3 28 9 18 13 -20 -2 -54 -30 -68 -18 -10 -125
-13 -416 -13 l-392 0 -20 26 c-12 15 -21 32 -21 39 0 7 9 24 21 39 16 20 29
26 60 26 37 0 39 -1 29 -21z m-5770 -8 c0 -5 12 -12 26 -15 26 -7 27 -16 2
-20 -7 -1 -19 -5 -26 -10 -28 -17 -59 24 -35 47 9 10 33 8 33 -2z m1955 -7
c14 -9 32 -13 42 -10 14 6 15 5 6 -5 -7 -7 -20 -13 -30 -14 -10 0 -24 -5 -31
-9 -19 -11 -42 1 -42 22 0 35 18 40 55 16z m3875 7 c0 -5 12 -12 26 -15 26 -7
27 -16 2 -20 -7 -1 -19 -5 -26 -10 -28 -17 -59 24 -35 47 9 10 33 8 33 -2z
m-5600 -21 c10 -6 11 -10 3 -10 -7 0 -13 -7 -13 -16 0 -8 -4 -12 -10 -9 -12 7
-14 45 -2 45 4 0 14 -5 22 -10z m2200 -16 c0 -8 -7 -14 -15 -14 -15 0 -21 21
-9 33 10 9 24 -2 24 -19z m3630 16 c10 -6 11 -10 3 -10 -7 0 -13 -7 -13 -16 0
-8 -4 -12 -10 -9 -12 7 -14 45 -2 45 4 0 14 -5 22 -10z m-5572 -12 c-6 -18
-28 -21 -28 -4 0 9 7 16 16 16 9 0 14 -5 12 -12z m5830 0 c-6 -18 -28 -21 -28
-4 0 9 7 16 16 16 9 0 14 -5 12 -12z m-6238 -12 c0 -3 -4 -8 -10 -11 -5 -3
-10 -1 -10 4 0 6 5 11 10 11 6 0 10 -2 10 -4z m1940 0 c0 -3 -4 -8 -10 -11 -5
-3 -10 -1 -10 4 0 6 5 11 10 11 6 0 10 -2 10 -4z m190 0 c0 -3 -4 -8 -10 -11
-5 -3 -10 -1 -10 4 0 6 5 11 10 11 6 0 10 -2 10 -4z m3700 0 c0 -3 -4 -8 -10
-11 -5 -3 -10 -1 -10 4 0 6 5 11 10 11 6 0 10 -2 10 -4z m-9373 -203 c4 -9 -1
-29 -9 -44 -15 -26 -15 -28 0 -32 9 -3 2 -5 -16 -6 l-34 -1 26 31 c14 17 26
34 26 39 0 14 -18 21 -25 10 -3 -5 -11 -10 -17 -10 -7 0 -6 6 2 15 16 20 39
19 47 -2z m123 2 c17 -20 5 -45 -20 -45 -12 0 -24 -9 -30 -22 -7 -18 -9 -12
-9 30 -1 48 1 52 23 52 13 0 29 -7 36 -15z m61 -22 l13 -38 14 38 c21 52 32
46 31 -15 -1 -47 -2 -49 -8 -18 l-6 35 -12 -32 c-7 -18 -15 -33 -18 -33 -3 0
-11 15 -18 33 l-12 32 -6 -35 c-6 -31 -7 -29 -8 18 -1 61 12 68 30 15z m9049
-224 c-25 -46 17 -97 66 -79 11 5 27 4 35 -1 9 -4 25 -5 37 -2 17 4 22 13 22
39 0 38 -22 54 -50 37 -13 -9 -19 -7 -28 8 -12 18 -8 19 75 19 53 0 83 -4 78
-9 -6 -5 -21 -11 -35 -13 -21 -2 -26 -9 -28 -40 -2 -28 1 -38 12 -38 8 0 16
11 18 27 4 36 26 41 30 6 3 -24 9 -29 42 -34 60 -10 76 -2 76 37 0 35 -3 37
-54 38 -16 1 -31 7 -33 14 -4 9 15 12 71 12 l76 0 -10 -25 c-21 -55 23 -96 74
-69 14 7 26 9 26 5 0 -13 36 -19 54 -9 20 11 21 51 1 68 -20 17 -65 -2 -65
-26 0 -10 -3 -14 -7 -11 -3 4 -12 2 -19 -4 -19 -16 -44 -4 -44 21 0 24 26 38
43 21 17 -17 30 -13 24 9 -5 19 0 20 108 20 115 0 145 -4 145 -22 0 -5 -5 -6
-12 -2 -6 4 -17 -1 -25 -12 -12 -16 -15 -17 -23 -4 -6 9 -26 15 -55 16 l-45 2
0 -39 c0 -22 5 -39 10 -39 6 0 10 9 10 19 0 11 5 23 10 26 6 4 10 -5 10 -19 0
-40 30 -34 31 7 l1 32 10 -32 c13 -41 40 -43 55 -5 l11 27 1 -27 c2 -42 31
-37 31 5 0 22 3 28 9 18 13 -20 -2 -54 -30 -68 -18 -10 -125 -13 -416 -13
l-392 0 -20 26 c-12 15 -21 32 -21 39 0 7 9 24 21 39 16 20 29 26 60 26 37 0
39 -1 29 -21z m60 -8 c0 -5 12 -12 26 -15 26 -7 27 -16 2 -20 -7 -1 -19 -5
-26 -10 -28 -17 -59 24 -35 47 9 10 33 8 33 -2z m230 -21 c10 -6 11 -10 3 -10
-7 0 -13 -7 -13 -16 0 -8 -4 -12 -10 -9 -12 7 -14 45 -2 45 4 0 14 -5 22 -10z
m258 -12 c-6 -18 -28 -21 -28 -4 0 9 7 16 16 16 9 0 14 -5 12 -12z m-408 -12
c0 -3 -4 -8 -10 -11 -5 -3 -10 -1 -10 4 0 6 5 11 10 11 6 0 10 -2 10 -4z
m-9375 -336 c0 -36 -4 -45 -19 -48 -10 -2 -23 2 -30 8 -8 10 -6 12 11 7 26 -6
42 11 22 23 -10 7 -10 12 -1 23 14 17 6 28 -16 20 -10 -4 -13 -2 -8 6 4 7 15
11 24 9 13 -2 17 -14 17 -48z m123 41 c21 -13 10 -46 -16 -49 -14 -2 -22 -10
-22 -23 0 -10 -4 -19 -10 -19 -5 0 -10 23 -10 50 0 45 2 50 23 50 12 0 28 -4
35 -9z m63 -28 l13 -38 14 38 c21 52 32 46 31 -15 -1 -47 -2 -49 -8 -18 l-6
35 -12 -32 c-7 -18 -15 -33 -18 -33 -3 0 -11 15 -18 33 l-12 32 -6 -35 c-6
-31 -7 -29 -8 18 -1 61 12 68 30 15z m-190 -652 c-3 -10 -6 -11 -9 -3 -2 7
-12 12 -23 12 -25 0 -24 15 4 53 l22 32 5 -40 c3 -22 4 -47 1 -54z m127 80
c21 -13 10 -46 -16 -49 -14 -2 -22 -10 -22 -23 0 -10 -4 -19 -10 -19 -5 0 -10
23 -10 50 0 45 2 50 23 50 12 0 28 -4 35 -9z m63 -28 l13 -38 14 38 c21 52 32
46 31 -15 -1 -47 -2 -49 -8 -18 l-6 35 -12 -32 c-7 -18 -15 -33 -18 -33 -3 0
-11 15 -18 33 l-12 32 -6 -35 c-6 -31 -7 -29 -8 18 -1 61 12 68 30 15z m7572
-14 c33 -15 47 -49 47 -114 l0 -55 -295 0 -296 0 -24 -25 c-25 -24 -25 -25
-25 -225 0 -200 0 -201 25 -225 l24 -25 -400 0 -400 0 -24 -25 c-25 -24 -25
-25 -25 -225 0 -200 0 -201 25 -225 l24 -25 696 0 695 0 0 -35 c0 -46 -17 -80
-47 -94 -17 -8 -229 -11 -713 -11 -484 0 -696 3 -713 11 -14 6 -30 22 -36 36
-16 34 -15 1192 0 1227 6 13 21 29 33 34 31 15 1397 16 1429 1z m-90 -186
c-79 -2 -207 -2 -285 0 -79 1 -15 3 142 3 157 0 221 -2 143 -3z m-456 -26
c-12 -13 -24 -22 -26 -20 -6 4 30 43 40 43 5 0 -2 -10 -14 -23z m-30 -294 c-1
-49 -3 -9 -3 87 0 96 2 136 3 88 2 -49 2 -127 0 -175z m2053 96 c-25 -46 17
-97 66 -79 11 5 27 4 35 -1 9 -4 25 -5 37 -2 17 4 22 13 22 39 0 38 -22 54
-50 37 -13 -9 -19 -7 -28 8 -12 18 -8 19 75 19 53 0 83 -4 78 -9 -6 -5 -21
-11 -35 -13 -21 -2 -26 -9 -28 -40 -2 -28 1 -38 12 -38 8 0 16 11 18 27 4 36
26 41 30 6 3 -24 9 -29 42 -34 60 -10 76 -2 76 37 0 35 -3 37 -54 38 -16 1
-31 7 -33 14 -4 9 15 12 71 12 l76 0 -10 -25 c-21 -55 23 -96 74 -69 14 7 26
9 26 5 0 -13 36 -19 54 -9 20 11 21 51 1 68 -20 17 -65 -2 -65 -26 0 -10 -3
-14 -7 -11 -3 4 -12 2 -19 -4 -19 -16 -44 -4 -44 21 0 24 26 38 43 21 17 -17
30 -13 24 9 -5 19 0 20 108 20 115 0 145 -4 145 -22 0 -5 -5 -6 -12 -2 -6 4
-17 -1 -25 -12 -12 -16 -15 -17 -23 -4 -6 9 -26 15 -55 16 l-45 2 0 -39 c0
-22 5 -39 10 -39 6 0 10 9 10 19 0 11 5 23 10 26 6 4 10 -5 10 -19 0 -40 30
-34 31 7 l1 32 10 -32 c13 -41 40 -43 55 -5 l11 27 1 -27 c2 -42 31 -37 31 5
0 22 3 28 9 18 13 -20 -2 -54 -30 -68 -18 -10 -125 -13 -415 -13 -376 0 -392
1 -409 20 -42 46 -9 110 57 110 36 0 38 -1 28 -21z m60 -8 c0 -5 12 -12 26
-15 26 -7 27 -16 2 -20 -7 -1 -19 -5 -26 -10 -28 -17 -59 24 -35 47 9 10 33 8
33 -2z m230 -21 c10 -6 11 -10 3 -10 -7 0 -13 -7 -13 -16 0 -8 -4 -12 -10 -9
-12 7 -14 45 -2 45 4 0 14 -5 22 -10z m258 -12 c-6 -18 -28 -21 -28 -4 0 9 7
16 16 16 9 0 14 -5 12 -12z m-408 -12 c0 -3 -4 -8 -10 -11 -5 -3 -10 -1 -10 4
0 6 5 11 10 11 6 0 10 -2 10 -4z m-9387 -96 c-29 -12 -30 -30 -2 -30 16 0 20
-5 17 -27 -2 -22 -8 -28 -27 -28 -13 0 -27 7 -29 15 -4 13 -3 13 11 2 18 -15
37 -8 37 14 0 8 -10 14 -24 14 -19 0 -22 4 -18 25 3 19 10 25 31 24 25 0 25 0
4 -9z m137 -5 c17 -20 5 -45 -20 -45 -12 0 -24 -9 -30 -22 -7 -18 -9 -12 -9
30 -1 48 1 52 23 52 13 0 29 -7 36 -15z m61 -22 l13 -38 14 38 c21 52 32 46
31 -15 -1 -47 -2 -49 -8 -18 l-6 35 -12 -32 c-7 -18 -15 -33 -18 -33 -3 0 -11
15 -18 33 l-12 32 -6 -35 c-6 -31 -7 -29 -8 18 -1 61 12 68 30 15z m7282 -100
c-189 -2 -497 -2 -685 0 -189 1 -35 2 342 2 377 0 531 -1 343 -2z m-7492 -487
c-9 -11 -7 -15 10 -19 29 -8 23 -51 -8 -55 -31 -5 -41 39 -18 74 9 14 19 23
22 20 3 -3 1 -12 -6 -20z m149 9 c17 -20 5 -45 -20 -45 -12 0 -24 -9 -30 -22
-7 -18 -9 -12 -9 30 -1 48 1 52 23 52 13 0 29 -7 36 -15z m61 -22 l13 -38 14
38 c21 52 32 46 31 -15 -1 -47 -2 -49 -8 -18 l-6 35 -12 -32 c-7 -18 -15 -33
-18 -33 -3 0 -11 15 -18 33 l-12 32 -6 -35 c-6 -31 -7 -29 -8 18 -1 61 12 68
30 15z m14479 -138 c0 -17 -57 -68 -64 -57 -3 5 3 17 14 27 11 10 20 23 20 30
0 7 -9 20 -20 30 -11 10 -17 22 -14 27 7 11 64 -40 64 -57z"/>
<path d="M13664 10382 c-199 -70 -258 -326 -108 -476 22 -21 59 -48 84 -60 44
-21 54 -21 705 -21 651 0 661 0 705 21 106 50 165 144 165 264 0 120 -59 214
-165 264 -44 21 -57 21 -690 23 -596 2 -649 1 -696 -15z m951 -97 c24 -23 25
-28 25 -175 0 -147 -1 -152 -25 -175 l-24 -25 -436 0 -436 0 -24 25 c-24 23
-25 28 -25 175 0 147 1 152 25 175 l24 25 436 0 436 0 24 -25z m391 -2 c22
-11 53 -39 69 -62 26 -37 30 -51 30 -109 0 -53 -5 -75 -23 -104 -27 -43 -37
-46 -72 -18 -34 26 -36 25 -43 -16 -8 -45 -23 -64 -53 -64 -17 0 -24 6 -24 20
0 11 5 20 10 20 6 0 10 9 10 19 0 11 6 22 13 25 8 3 7 8 -6 16 -13 9 -15 15
-7 31 6 10 7 19 3 19 -4 0 -9 21 -11 47 -1 25 -7 52 -13 60 -14 16 -4 43 15
43 39 0 66 -24 72 -62 9 -54 29 -42 28 17 0 41 -5 52 -32 76 -53 47 -117 37
-148 -23 -18 -35 -14 -87 13 -143 15 -30 15 -38 2 -61 -7 -15 -25 -34 -38 -42
-22 -15 -25 -15 -46 13 -30 37 -49 106 -42 150 23 142 166 214 293 148z"/>
<path d="M14426 10215 c-4 -11 -22 -27 -39 -35 -29 -14 -32 -19 -35 -69 -2
-30 2 -59 7 -64 8 -8 11 7 11 50 0 46 4 62 16 67 29 11 34 6 34 -37 0 -52 22
-87 56 -87 13 0 24 5 24 10 0 6 -8 10 -19 10 -28 0 -43 24 -39 67 3 33 6 38
31 41 33 4 26 22 -8 22 -17 0 -25 7 -28 23 -4 21 -5 21 -11 2z"/>
<path d="M13927 10181 c17 -11 34 -29 38 -41 4 -12 9 -19 12 -17 8 9 -25 64
-42 71 -34 13 -39 5 -8 -13z"/>
<path d="M14150 10183 c-43 -16 -66 -74 -42 -109 19 -29 94 -46 107 -24 4 6
-7 10 -25 10 -47 0 -70 16 -70 50 0 34 31 60 73 60 16 0 26 4 22 10 -7 11 -40
12 -65 3z"/>
<path d="M14275 10183 c-59 -15 -75 -85 -29 -122 28 -22 78 -28 89 -11 4 6 -8
10 -29 10 -36 0 -66 21 -66 46 0 10 12 14 40 14 22 0 40 5 40 10 0 6 -17 10
-37 10 -36 1 -37 2 -19 15 11 8 33 15 49 15 16 0 26 4 22 10 -6 10 -25 11 -60
3z"/>
<path d="M14520 10116 c0 -36 5 -68 10 -71 6 -4 10 20 10 64 0 41 -4 71 -10
71 -6 0 -10 -28 -10 -64z"/>
<path d="M13740 10085 c0 -49 77 -126 125 -124 14 0 10 5 -15 16 -48 21 -70
41 -91 88 -12 26 -19 33 -19 20z"/>
<path d="M13814 10071 c15 -27 34 -41 59 -41 7 0 -3 9 -20 20 -18 11 -33 27
-33 35 0 8 -5 15 -10 15 -6 0 -4 -12 4 -29z"/>
<path d="M13956 10074 c-10 -14 -27 -29 -39 -34 -18 -7 -19 -9 -4 -9 19 -1 67
41 67 59 0 16 -6 12 -24 -16z"/>
<path d="M13820 10019 c0 -28 96 -38 126 -13 18 14 18 15 1 10 -51 -16 -69
-17 -97 -3 -16 9 -30 11 -30 6z"/>
<path d="M14923 10155 c0 -8 6 -16 14 -19 8 -3 13 2 13 14 0 11 -6 20 -13 20
-8 0 -14 -7 -14 -15z"/>
<path d="M9347 10189 c-5 -17 -11 -20 -32 -17 -30 6 -56 -25 -30 -36 8 -3 15
-15 15 -26 0 -11 -7 -23 -15 -26 -11 -5 -12 -11 -4 -25 5 -11 14 -17 20 -14
15 10 49 -5 49 -21 0 -8 9 -14 20 -14 11 0 20 6 20 14 0 16 34 31 49 21 6 -3
15 3 20 14 8 14 7 20 -4 25 -8 3 -15 15 -15 26 0 11 7 23 15 26 26 11 0 42
-30 36 -21 -3 -27 0 -32 17 -3 11 -13 21 -23 21 -10 0 -20 -10 -23 -21z m53
-54 c26 -32 -13 -81 -47 -59 -35 22 -23 74 17 74 10 0 23 -7 30 -15z"/>
<path d="M8745 10198 c-91 -50 -58 -188 45 -188 51 0 100 49 100 99 0 73 -83
124 -145 89z m87 -42 c9 -21 7 -29 -13 -55 -13 -16 -27 -30 -31 -30 -15 -2 -8
23 12 44 18 19 19 24 6 34 -11 10 -19 9 -35 -1 -25 -15 -39 -4 -21 17 20 24
69 19 82 -9z m-32 -106 c0 -5 -4 -10 -10 -10 -5 0 -10 5 -10 10 0 6 5 10 10
10 6 0 10 -4 10 -10z"/>
<path d="M8200 10180 c-34 -34 -20 -80 27 -95 29 -8 76 35 66 62 -18 53 -59
67 -93 33z"/>
<path d="M3252 10118 c-7 -7 -12 -24 -12 -38 0 -52 61 -71 82 -25 23 51 -32
101 -70 63z"/>
<path d="M3786 10168 c-34 -49 -8 -143 37 -136 64 9 55 158 -9 158 -7 0 -20
-10 -28 -22z"/>
<path d="M4090 10090 c-15 -28 4 -60 35 -60 31 0 50 32 35 60 -6 12 -21 20
-35 20 -14 0 -29 -8 -35 -20z"/>
<path d="M11660 10160 c0 -6 32 -10 75 -10 43 0 75 4 75 10 0 6 -32 10 -75 10
-43 0 -75 -4 -75 -10z"/>
<path d="M11660 10070 l0 -50 75 0 75 0 0 50 0 50 -75 0 -75 0 0 -50z m84 19
c-3 -5 -10 -7 -15 -3 -5 3 -7 10 -3 15 3 5 10 7 15 3 5 -3 7 -10 3 -15z m-34
7 c0 -11 -19 -15 -25 -6 -3 5 1 10 9 10 9 0 16 -2 16 -4z m80 0 c0 -3 -4 -8
-10 -11 -5 -3 -10 -1 -10 4 0 6 5 11 10 11 6 0 10 -2 10 -4z"/>
<path d="M533 10133 c-7 -3 -13 -16 -13 -29 0 -17 5 -24 20 -24 11 0 23 7 27
16 7 18 -16 44 -34 37z"/>
<path d="M2630 10065 c-16 -19 -4 -35 25 -35 24 0 51 31 38 44 -12 11 -50 6
-63 -9z"/>
<path d="M3022 10118 c-7 -7 -12 -24 -12 -38 0 -31 17 -50 45 -50 28 0 45 19
45 50 0 31 -17 50 -45 50 -12 0 -26 -5 -33 -12z"/>
<path d="M3417 10124 c-15 -16 -5 -24 29 -24 24 0 34 4 32 13 -5 13 -50 22
-61 11z"/>
<path d="M10393 10088 c2 -7 10 -13 17 -13 7 0 15 6 18 13 2 7 -5 12 -18 12
-13 0 -20 -5 -17 -12z"/>
<path d="M10595 10091 c-3 -5 -1 -12 5 -16 12 -7 30 2 30 16 0 12 -27 12 -35
0z"/>
<path d="M675 10130 c-3 -5 3 -10 15 -10 12 0 18 5 15 10 -3 6 -10 10 -15 10
-5 0 -12 -4 -15 -10z"/>
<path d="M10145 10130 c-3 -5 3 -10 15 -10 12 0 18 5 15 10 -3 6 -10 10 -15
10 -5 0 -12 -4 -15 -10z"/>
<path d="M1736 9523 c-9 -10 -7 -61 3 -67 17 -11 41 6 41 30 0 23 -31 49 -44
37z"/>
<path d="M1853 9523 c-19 -7 -16 -60 3 -67 34 -13 59 35 32 62 -13 13 -16 13
-35 5z"/>
<path d="M5840 9510 c0 -11 6 -20 14 -20 21 0 31 21 15 31 -22 14 -29 11 -29
-11z"/>
<path d="M7587 9518 c-23 -12 -21 -45 3 -58 16 -9 20 -8 20 5 0 9 4 14 9 10
13 -7 22 10 15 28 -8 21 -27 27 -47 15z"/>
<path d="M7806 9495 c-3 -9 0 -15 9 -15 16 0 20 16 6 24 -5 3 -11 -1 -15 -9z"/>
<path d="M9552 9518 c-21 -21 -7 -68 20 -68 4 0 8 7 8 16 0 8 5 12 10 9 6 -3
10 5 10 18 0 14 -7 28 -16 31 -20 8 -18 8 -32 -6z"/>
<path d="M13525 9500 c-8 -13 -1 -24 14 -19 6 3 7 10 2 18 -6 10 -10 10 -16 1z"/>
<path d="M13620 9515 c0 -8 6 -15 14 -15 22 0 28 17 10 24 -22 9 -24 8 -24 -9z"/>
<path d="M13620 9470 c0 -11 6 -20 14 -20 21 0 31 21 15 31 -22 14 -29 11 -29
-11z"/>
<path d="M9689 9149 c-17 -17 -19 -23 -8 -30 9 -5 17 -3 22 6 12 22 54 18 67
-5 13 -24 11 -28 -52 -101 -26 -30 -48 -61 -48 -67 0 -8 23 -12 71 -12 52 0
70 3 67 13 -3 6 -23 13 -46 15 -23 2 -42 6 -42 9 0 3 18 25 40 49 51 55 56 94
18 127 -27 23 -63 22 -89 -4z"/>
<path d="M9568 9142 c-16 -9 -28 -20 -28 -24 0 -12 18 -19 25 -8 17 27 25 2
25 -80 0 -73 3 -90 15 -90 12 0 15 19 15 110 0 119 -2 123 -52 92z"/>
<path d="M1870 9145 c-22 -26 -8 -50 30 -50 25 0 36 5 38 18 5 23 -15 47 -38
47 -10 0 -23 -7 -30 -15z"/>
<path d="M1866 9041 c-38 -42 22 -94 64 -56 25 22 25 37 2 58 -24 22 -45 21
-66 -2z"/>
<path d="M3806 9144 c-21 -20 -20 -37 3 -65 16 -20 23 -22 47 -14 51 18 42 95
-12 95 -12 0 -30 -7 -38 -16z"/>
<path d="M5816 9138 c-24 -34 -21 -123 4 -148 46 -46 95 -8 95 75 0 38 -5 59
-19 74 -25 27 -61 27 -80 -1z"/>
<path d="M13616 9080 l-36 -50 40 0 40 0 0 50 c0 28 -2 50 -4 50 -2 0 -20 -22
-40 -50z"/>
<path d="M574 8566 c-8 -22 -1 -59 13 -63 19 -7 35 34 23 57 -13 23 -28 26
-36 6z"/>
<path d="M1320 8310 c0 -56 3 -70 15 -70 12 0 15 14 15 70 0 56 -3 70 -15 70
-12 0 -15 -14 -15 -70z"/>
<path d="M1636 8365 c-3 -9 0 -15 8 -15 8 0 16 7 20 15 3 9 0 15 -8 15 -8 0
-16 -7 -20 -15z"/>
<path d="M1810 8360 c0 -13 -7 -20 -19 -20 -11 0 -23 -5 -26 -10 -5 -8 -11 -7
-20 0 -8 6 -26 10 -42 8 -23 -2 -29 -8 -31 -35 -3 -27 1 -35 22 -45 21 -9 29
-8 44 5 16 15 20 15 34 1 10 -10 24 -13 41 -8 25 6 27 10 27 65 0 46 -3 59
-15 59 -8 0 -15 -9 -15 -20z m-85 -60 c0 -7 -6 -15 -12 -17 -8 -3 -13 4 -13
17 0 13 5 20 13 18 6 -3 12 -11 12 -18z m85 0 c0 -11 -4 -20 -9 -20 -14 0 -23
18 -16 30 10 17 25 11 25 -10z"/>
<path d="M2040 8361 c0 -14 -8 -21 -27 -23 -23 -2 -29 -9 -31 -34 -4 -38 17
-57 52 -48 24 6 26 10 26 65 0 33 -4 59 -10 59 -5 0 -10 -9 -10 -19z m-4 -52
c8 -14 -11 -33 -25 -25 -11 7 -4 36 9 36 5 0 12 -5 16 -11z"/>
<path d="M2542 8368 c6 -18 28 -21 28 -4 0 9 -7 16 -16 16 -9 0 -14 -5 -12
-12z"/>
<path d="M2677 8373 c-15 -14 -6 -21 26 -20 17 1 31 6 30 11 -3 12 -47 19 -56
9z"/>
<path d="M1100 8315 c0 -30 5 -55 10 -55 6 0 10 9 10 20 0 15 7 20 25 20 14 0
28 6 31 14 5 12 10 12 35 -2 16 -10 29 -20 29 -24 0 -13 -28 -9 -32 4 -2 6 -9
8 -16 4 -16 -10 -4 -33 20 -40 52 -13 80 44 33 66 -14 6 -25 15 -25 20 0 11
18 10 25 -2 4 -6 11 -8 16 -4 16 9 -11 34 -37 34 -12 0 -26 -5 -29 -10 -4 -7
-12 -7 -25 0 -10 5 -30 10 -44 10 -25 0 -26 -3 -26 -55z m50 20 c0 -8 -7 -15
-15 -15 -8 0 -15 7 -15 15 0 8 7 15 15 15 8 0 15 -7 15 -15z"/>
<path d="M1400 8315 c0 -42 3 -55 15 -55 8 0 15 9 15 20 0 30 44 26 65 -6 13
-20 22 -24 38 -19 12 4 32 6 45 6 18 -1 22 5 22 29 0 20 5 30 15 30 10 0 15
-10 15 -30 0 -20 5 -30 15 -30 11 0 15 11 15 40 l0 41 -84 -3 c-71 -3 -86 0
-95 15 -7 11 -24 17 -46 17 l-35 0 0 -55z m60 20 c0 -8 -7 -15 -15 -15 -8 0
-15 7 -15 15 0 8 7 15 15 15 8 0 15 -7 15 -15z"/>
<path d="M2200 8315 c0 -42 3 -55 15 -55 12 0 15 13 15 55 0 42 -3 55 -15 55
-12 0 -15 -13 -15 -55z"/>
<path d="M1857 8333 c-15 -14 -7 -63 12 -73 29 -15 39 -13 56 14 22 33 5 66
-34 66 -15 0 -31 -3 -34 -7z m48 -33 c0 -7 -6 -15 -12 -17 -8 -3 -13 4 -13 17
0 13 5 20 13 18 6 -3 12 -11 12 -18z"/>
<path d="M2082 8328 c-34 -34 6 -91 49 -68 31 17 23 74 -11 78 -14 2 -31 -3
-38 -10z m45 -44 c-3 -3 -12 -4 -19 -1 -8 3 -5 6 6 6 11 1 17 -2 13 -5z"/>
<path d="M2240 8300 c0 -29 4 -40 15 -40 10 0 15 10 15 30 0 17 5 30 10 30 6
0 10 -14 10 -31 0 -26 3 -30 19 -26 10 2 25 0 34 -5 11 -5 24 -5 37 2 14 8 26
8 40 0 14 -8 26 -8 40 0 28 15 25 32 -5 24 -21 -5 -25 -3 -25 16 0 16 4 20 16
16 9 -3 22 -6 30 -6 8 0 14 -10 14 -25 0 -33 18 -32 22 2 4 39 28 42 28 4 0
-21 5 -31 15 -31 11 0 15 11 15 40 l0 40 -40 0 c-23 0 -40 -5 -40 -11 0 -8 -4
-8 -14 0 -25 21 -69 9 -76 -19 -4 -15 -9 -20 -13 -13 -4 6 -4 18 -1 27 5 12 0
16 -23 16 -16 0 -34 -5 -41 -12 -9 -9 -12 -9 -12 0 0 7 -14 12 -35 12 -34 0
-35 -1 -35 -40z m95 0 c3 -5 1 -10 -4 -10 -6 0 -11 5 -11 10 0 6 2 10 4 10 3
0 8 -4 11 -10z"/>
<path d="M2587 8333 c-13 -12 -7 -64 7 -69 8 -3 12 -13 9 -25 -4 -15 0 -19 17
-19 17 0 21 4 17 19 -6 25 16 34 48 19 21 -9 29 -9 42 5 14 14 18 14 39 1 34
-23 66 -3 62 39 -2 25 -8 33 -26 35 -13 2 -30 -2 -38 -9 -11 -9 -18 -9 -26 -1
-15 15 -51 15 -65 1 -8 -8 -13 -8 -17 0 -8 12 -59 15 -69 4z m64 -23 c5 0 9
-4 9 -9 0 -10 -40 -22 -51 -15 -14 8 3 35 18 30 8 -3 19 -6 24 -6z m69 -10 c0
-11 -7 -20 -15 -20 -8 0 -15 9 -15 20 0 11 7 20 15 20 8 0 15 -9 15 -20z m87
-16 c-3 -3 -12 -4 -19 -1 -8 3 -5 6 6 6 11 1 17 -2 13 -5z"/>
<path d="M2847 8333 c-2 -4 -5 -22 -5 -40 -1 -34 20 -49 52 -37 12 5 15 16 13
43 -3 30 -8 37 -30 39 -14 2 -27 0 -30 -5z"/>
<path d="M4946 8038 c-26 -64 -28 -78 -12 -78 9 0 16 5 16 10 0 6 9 10 20 10
11 0 20 -4 20 -10 0 -5 7 -10 16 -10 10 0 14 6 11 14 -3 8 -11 32 -18 55 -15
49 -35 53 -53 9z"/>
<path d="M5323 8015 c-17 -44 -18 -55 -7 -55 8 0 14 5 14 10 0 6 11 10 25 10
14 0 25 -4 25 -10 0 -5 14 -10 30 -10 23 0 30 4 30 20 0 15 7 20 24 20 16 0
27 7 31 20 9 30 -12 50 -51 50 l-34 0 -1 -52 0 -53 -21 53 c-11 28 -26 52 -33
52 -7 0 -21 -25 -32 -55z m147 20 c0 -8 -7 -15 -15 -15 -8 0 -15 7 -15 15 0 8
7 15 15 15 8 0 15 -7 15 -15z"/>
<path d="M5510 8020 c0 -44 3 -52 25 -62 21 -9 28 -8 45 7 25 23 29 105 5 105
-11 0 -15 -12 -15 -46 0 -38 -3 -45 -17 -42 -13 2 -19 15 -21 46 -4 59 -22 53
-22 -8z"/>
<path d="M5028 8048 c-16 -42 19 -118 38 -86 4 7 2 14 -4 16 -16 5 -15 39 0
44 9 3 8 9 -4 21 -20 20 -24 21 -30 5z"/>
<path d="M5088 8033 c-9 -17 -8 -72 1 -78 6 -3 22 -3 36 1 23 6 26 11 23 43
-3 31 -7 36 -30 39 -14 2 -28 0 -30 -5z m39 -19 c-3 -3 -12 -4 -19 -1 -8 3 -5
6 6 6 11 1 17 -2 13 -5z m3 -28 c0 -11 -19 -15 -25 -6 -3 5 1 10 9 10 9 0 16
-2 16 -4z"/>
<path d="M5200 8010 c0 -5 14 -10 30 -10 17 0 30 5 30 10 0 6 -13 10 -30 10
-16 0 -30 -4 -30 -10z"/>
<path d="M6870 8010 c0 -68 1 -70 25 -70 14 0 25 5 25 10 0 6 -4 10 -10 10 -5
0 -10 23 -10 50 0 28 5 50 10 50 6 0 10 5 10 10 0 6 -11 10 -25 10 -24 0 -25
-2 -25 -70z"/>
<path d="M7420 8070 c0 -5 5 -10 10 -10 6 0 10 -22 10 -50 0 -27 -4 -50 -10
-50 -5 0 -10 -4 -10 -10 0 -5 9 -10 20 -10 18 0 20 7 20 70 0 63 -2 70 -20 70
-11 0 -20 -4 -20 -10z"/>
<path d="M6930 8015 c0 -30 5 -55 10 -55 6 0 10 9 10 19 0 14 8 21 28 23 20 2
28 9 30 27 4 28 -12 41 -50 41 -27 0 -28 -2 -28 -55z m58 18 c2 -8 -5 -13 -17
-13 -12 0 -21 6 -21 16 0 18 31 15 38 -3z"/>
<path d="M7020 8015 c0 -42 3 -55 15 -55 9 0 15 9 16 23 l0 22 16 -22 c16 -23
73 -33 73 -13 0 14 33 13 48 -2 22 -22 24 1 6 52 -23 63 -43 62 -63 -3 -8 -26
-18 -47 -22 -47 -14 0 -18 31 -7 50 17 26 -6 50 -48 50 l-34 0 0 -55z m60 20
c0 -8 -7 -15 -15 -15 -8 0 -15 7 -15 15 0 8 7 15 15 15 8 0 15 -7 15 -15z"/>
<path d="M7220 8060 c0 -5 12 -10 26 -10 l26 0 -26 -34 c-35 -47 -33 -56 14
-56 22 0 40 5 40 10 0 6 -12 10 -26 10 l-26 0 26 31 c38 44 34 59 -14 59 -22
0 -40 -4 -40 -10z"/>
<path d="M7315 8046 c-35 -53 19 -115 71 -81 27 17 33 72 12 93 -21 21 -66 14
-83 -12z m71 -22 c8 -30 -6 -47 -32 -42 -35 6 -30 68 5 68 14 0 23 -9 27 -26z"/>
<path d="M7532 8058 c-21 -21 -15 -76 11 -92 26 -17 63 -11 72 11 7 21 -2 30
-17 15 -31 -31 -75 10 -48 43 14 17 40 20 40 5 0 -5 7 -10 15 -10 8 0 15 4 15
8 0 16 -25 32 -50 32 -14 0 -31 -5 -38 -12z"/>
<path d="M7620 8068 c0 -16 40 -103 49 -106 10 -3 29 31 45 86 5 16 3 22 -8
22 -8 0 -17 -13 -21 -30 -4 -16 -10 -30 -15 -30 -5 0 -11 14 -15 30 -4 17 -13
30 -21 30 -8 0 -14 -1 -14 -2z"/>
<path d="M7730 8015 c0 -30 5 -55 10 -55 6 0 10 9 10 20 0 13 7 20 19 20 11 0
23 5 26 10 4 6 -5 10 -19 10 -16 0 -26 6 -26 15 0 9 9 15 25 15 14 0 25 5 25
10 0 6 -16 10 -35 10 l-35 0 0 -55z"/>
<path d="M10760 8010 c0 -63 2 -70 20 -70 11 0 20 5 20 10 0 6 -4 10 -10 10
-5 0 -10 23 -10 50 0 28 5 50 10 50 6 0 10 5 10 10 0 6 -9 10 -20 10 -18 0
-20 -7 -20 -70z"/>
<path d="M11310 8070 c0 -5 5 -10 10 -10 6 0 10 -22 10 -50 0 -27 -4 -50 -10
-50 -5 0 -10 -4 -10 -10 0 -5 9 -10 20 -10 18 0 20 7 20 70 0 63 -2 70 -20 70
-11 0 -20 -4 -20 -10z"/>
<path d="M11850 8020 c0 -47 3 -60 15 -60 12 0 15 13 15 60 0 47 -3 60 -15 60
-12 0 -15 -13 -15 -60z"/>
<path d="M11920 8065 c0 -8 4 -15 9 -15 5 0 11 7 15 15 3 9 0 15 -9 15 -8 0
-15 -7 -15 -15z"/>
<path d="M12032 8068 c6 -18 28 -21 28 -4 0 9 -7 16 -16 16 -9 0 -14 -5 -12
-12z"/>
<path d="M12250 8060 c0 -13 -7 -20 -20 -20 -31 0 -45 -36 -25 -66 10 -16 22
-23 32 -20 8 3 21 6 29 6 10 0 14 15 14 60 0 47 -3 60 -15 60 -8 0 -15 -9 -15
-20z m0 -60 c0 -11 -7 -20 -15 -20 -8 0 -15 9 -15 20 0 11 7 20 15 20 8 0 15
-9 15 -20z"/>
<path d="M10810 8015 c0 -42 3 -55 15 -55 8 0 15 9 15 20 0 15 7 20 24 20 16
0 27 7 31 20 9 30 -12 50 -51 50 l-34 0 0 -55z m60 20 c0 -8 -7 -15 -15 -15
-8 0 -15 7 -15 15 0 8 7 15 15 15 8 0 15 -7 15 -15z"/>
<path d="M10910 8015 c0 -30 5 -55 10 -55 6 0 10 10 10 23 l1 22 18 -22 c23
-27 47 -32 33 -7 -6 11 -5 28 2 46 13 34 -1 48 -46 48 -27 0 -28 -2 -28 -55z
m53 20 c1 -5 -6 -11 -15 -13 -11 -2 -18 3 -18 13 0 17 30 18 33 0z"/>
<path d="M11017 8019 c-19 -51 -16 -72 5 -51 15 15 48 16 48 2 0 -6 27 -10 60
-10 59 0 84 16 34 22 l-25 3 25 34 c15 19 26 39 26 43 0 4 -20 8 -45 8 -48 0
-63 -16 -20 -22 l25 -3 -22 -32 c-13 -18 -26 -33 -30 -33 -3 0 -13 19 -20 43
-20 59 -39 58 -61 -4z"/>
<path d="M11200 8051 c-26 -49 -4 -93 47 -93 47 0 71 62 37 96 -22 23 -71 20
-84 -3z m65 -36 c0 -23 -5 -31 -22 -33 -26 -4 -41 31 -22 54 20 24 44 13 44
-21z"/>
<path d="M11410 8015 c0 -30 5 -55 10 -55 6 0 10 9 10 19 0 27 42 32 55 7 19
-36 43 -43 67 -19 19 19 20 26 10 48 -12 26 -54 35 -67 15 -10 -16 -65 -12
-65 5 0 9 9 15 25 15 14 0 25 5 25 10 0 6 -16 10 -35 10 l-35 0 0 -55z m130
-15 c0 -11 -7 -20 -15 -20 -8 0 -15 9 -15 20 0 11 7 20 15 20 8 0 15 -9 15
-20z"/>
<path d="M11580 8000 c0 -22 5 -40 10 -40 6 0 10 14 10 30 0 20 5 30 15 30 10
0 15 -10 15 -30 0 -20 5 -30 15 -30 10 0 15 10 15 30 0 17 5 30 10 30 6 0 10
-13 10 -30 0 -37 18 -40 22 -3 4 39 28 42 28 4 0 -17 5 -31 11 -31 6 0 9 16 7
38 l-3 37 -82 3 -83 3 0 -41z"/>
<path d="M11760 8011 c0 -38 22 -60 54 -54 23 5 26 10 26 44 0 28 -4 39 -15
39 -10 0 -15 -10 -15 -30 0 -16 -4 -30 -10 -30 -5 0 -10 14 -10 30 0 20 -5 30
-15 30 -10 0 -15 -10 -15 -29z"/>
<path d="M11898 8033 c-9 -17 -8 -72 1 -78 6 -3 22 -3 36 1 23 6 26 11 23 43
-3 31 -7 36 -30 39 -14 2 -28 0 -30 -5z m39 -19 c-3 -3 -12 -4 -19 -1 -8 3 -5
6 6 6 11 1 17 -2 13 -5z m3 -28 c0 -11 -19 -15 -25 -6 -3 5 1 10 9 10 9 0 16
-2 16 -4z"/>
<path d="M11970 8000 c0 -29 4 -40 15 -40 10 0 15 10 15 30 0 20 5 30 15 30
10 0 15 -10 15 -30 0 -20 5 -30 15 -30 11 0 15 11 15 40 l0 40 -45 0 -45 0 0
-40z"/>
<path d="M12074 8026 c-9 -24 0 -58 19 -70 27 -17 52 4 52 45 0 31 -3 34 -33
37 -21 2 -34 -2 -38 -12z m52 -17 c10 -17 -13 -36 -27 -22 -12 12 -4 33 11 33
5 0 12 -5 16 -11z"/>
<path d="M12297 8033 c-12 -12 -7 -60 7 -72 12 -10 14 -4 13 34 -1 43 -6 53
-20 38z"/>
<path d="M12700 8010 c0 -63 2 -70 20 -70 11 0 20 5 20 10 0 6 -4 10 -10 10
-5 0 -10 23 -10 50 0 28 5 50 10 50 6 0 10 5 10 10 0 6 -9 10 -20 10 -18 0
-20 -7 -20 -70z"/>
<path d="M13250 8070 c0 -5 5 -10 10 -10 6 0 10 -22 10 -50 0 -27 -4 -50 -10
-50 -5 0 -10 -4 -10 -10 0 -5 9 -10 20 -10 18 0 20 7 20 70 0 63 -2 70 -20 70
-11 0 -20 -4 -20 -10z"/>
<path d="M13790 8020 c0 -47 3 -60 15 -60 12 0 15 13 15 60 0 47 -3 60 -15 60
-12 0 -15 -13 -15 -60z"/>
<path d="M13860 8065 c0 -8 4 -15 9 -15 5 0 11 7 15 15 3 9 0 15 -9 15 -8 0
-15 -7 -15 -15z"/>
<path d="M13972 8068 c6 -18 28 -21 28 -4 0 9 -7 16 -16 16 -9 0 -14 -5 -12
-12z"/>
<path d="M12750 8015 c0 -42 3 -55 15 -55 8 0 15 9 15 20 0 15 7 20 24 20 16
0 27 7 31 20 9 30 -12 50 -51 50 l-34 0 0 -55z m60 20 c0 -8 -7 -15 -15 -15
-8 0 -15 7 -15 15 0 8 7 15 15 15 8 0 15 -7 15 -15z"/>
<path d="M12850 8016 c0 -31 5 -56 10 -56 6 0 10 9 10 20 0 11 3 20 8 20 4 0
13 -9 20 -20 20 -32 28 -23 27 33 l0 52 -37 3 -38 3 0 -55z m53 19 c1 -5 -6
-11 -15 -13 -11 -2 -18 3 -18 13 0 17 30 18 33 0z"/>
<path d="M12957 8019 c-19 -51 -16 -72 5 -51 15 15 48 16 48 2 0 -6 27 -10 60
-10 59 0 84 16 34 22 l-25 3 25 34 c15 19 26 39 26 43 0 4 -20 8 -45 8 -48 0
-63 -16 -20 -22 l25 -3 -22 -32 c-13 -18 -26 -33 -30 -33 -3 0 -13 19 -20 43
-20 59 -39 58 -61 -4z"/>
<path d="M13140 8051 c-26 -49 -4 -93 47 -93 47 0 71 62 37 96 -22 23 -71 20
-84 -3z m65 -36 c0 -23 -5 -31 -22 -33 -26 -4 -41 31 -22 54 20 24 44 13 44
-21z"/>
<path d="M13350 8015 c0 -30 5 -55 10 -55 6 0 10 9 10 20 0 29 38 26 62 -5 24
-30 39 -31 63 -5 15 17 16 24 7 45 -12 26 -54 35 -67 15 -10 -16 -65 -12 -65
5 0 9 9 15 25 15 14 0 25 5 25 10 0 6 -16 10 -35 10 l-35 0 0 -55z m130 -15
c0 -11 -7 -20 -15 -20 -8 0 -15 9 -15 20 0 11 7 20 15 20 8 0 15 -9 15 -20z"/>
<path d="M14140 8015 c0 -42 3 -55 15 -55 8 0 15 9 15 20 0 15 7 20 24 20 16
0 27 7 31 20 9 30 -12 50 -51 50 l-34 0 0 -55z m60 20 c0 -8 -7 -15 -15 -15
-8 0 -15 7 -15 15 0 8 7 15 15 15 8 0 15 -7 15 -15z"/>
<path d="M14240 8015 c0 -30 5 -55 10 -55 6 0 10 25 10 55 0 30 -4 55 -10 55
-5 0 -10 -25 -10 -55z"/>
<path d="M13520 8000 c0 -22 5 -40 10 -40 6 0 10 14 10 30 0 20 5 30 15 30 8
0 15 5 15 10 0 6 -11 10 -25 10 -22 0 -25 -4 -25 -40z"/>
<path d="M13580 8000 c0 -22 5 -40 10 -40 6 0 10 14 10 30 0 17 5 30 10 30 6
0 10 -13 10 -30 0 -20 5 -30 15 -30 10 0 15 10 15 30 0 17 5 30 10 30 6 0 10
-13 10 -30 0 -16 5 -30 10 -30 6 0 10 18 10 40 l0 40 -55 0 -55 0 0 -40z"/>
<path d="M13700 8011 c0 -38 22 -60 54 -54 23 5 26 10 26 44 0 28 -4 39 -15
39 -10 0 -15 -10 -15 -30 0 -16 -4 -30 -10 -30 -5 0 -10 14 -10 30 0 20 -5 30
-15 30 -10 0 -15 -10 -15 -29z"/>
<path d="M13837 8033 c-2 -5 -4 -22 -5 -39 -2 -35 11 -45 51 -37 29 6 35 29
17 64 -10 18 -55 27 -63 12z m40 -19 c-3 -3 -12 -4 -19 -1 -8 3 -5 6 6 6 11 1
17 -2 13 -5z m3 -28 c0 -11 -19 -15 -25 -6 -3 5 1 10 9 10 9 0 16 -2 16 -4z"/>
<path d="M13920 8000 c0 -22 5 -40 10 -40 6 0 10 14 10 30 0 20 5 30 15 30 10
0 15 -10 15 -30 0 -20 5 -30 15 -30 11 0 15 11 15 40 l0 40 -40 0 -40 0 0 -40z"/>
<path d="M14014 8026 c-9 -24 0 -58 19 -70 27 -17 52 4 52 45 0 31 -3 34 -33
37 -21 2 -34 -2 -38 -12z m52 -17 c10 -17 -13 -36 -27 -22 -12 12 -4 33 11 33
5 0 12 -5 16 -11z"/>
<path d="M10760 7710 c0 -63 2 -70 20 -70 11 0 20 5 20 10 0 6 -4 10 -10 10
-5 0 -10 23 -10 50 0 28 5 50 10 50 6 0 10 5 10 10 0 6 -9 10 -20 10 -18 0
-20 -7 -20 -70z"/>
<path d="M11310 7770 c0 -5 5 -10 10 -10 6 0 10 -22 10 -50 0 -27 -4 -50 -10
-50 -5 0 -10 -4 -10 -10 0 -5 9 -10 20 -10 18 0 20 7 20 70 0 63 -2 70 -20 70
-11 0 -20 -4 -20 -10z"/>
<path d="M11500 7720 c0 -33 4 -60 10 -60 6 0 10 27 10 60 0 33 -4 60 -10 60
-6 0 -10 -27 -10 -60z"/>
<path d="M11710 7765 c0 -8 7 -15 15 -15 8 0 15 7 15 15 0 8 -7 15 -15 15 -8
0 -15 -7 -15 -15z"/>
<path d="M11750 7720 c0 -33 4 -60 10 -60 6 0 10 27 10 60 0 33 -4 60 -10 60
-6 0 -10 -27 -10 -60z"/>
<path d="M11790 7720 c0 -33 4 -60 10 -60 6 0 10 14 10 30 0 20 5 30 15 30 10
0 15 -10 15 -30 0 -16 5 -30 10 -30 6 0 10 18 10 40 0 36 -2 40 -25 40 -18 0
-25 5 -25 20 0 11 -4 20 -10 20 -6 0 -10 -27 -10 -60z"/>
<path d="M12050 7760 c0 -13 -7 -20 -20 -20 -31 0 -45 -36 -25 -66 10 -16 22
-23 32 -20 8 3 21 6 29 6 10 0 14 15 14 60 0 47 -3 60 -15 60 -8 0 -15 -9 -15
-20z m0 -60 c0 -11 -7 -20 -15 -20 -8 0 -15 9 -15 20 0 11 7 20 15 20 8 0 15
-9 15 -20z"/>
<path d="M10810 7715 c0 -42 3 -55 15 -55 8 0 15 9 15 20 0 15 7 20 24 20 16
0 27 7 31 20 9 30 -12 50 -51 50 l-34 0 0 -55z m60 20 c0 -8 -7 -15 -15 -15
-8 0 -15 7 -15 15 0 8 7 15 15 15 8 0 15 -7 15 -15z"/>
<path d="M10910 7715 c0 -30 5 -55 10 -55 6 0 10 10 10 23 l1 22 18 -22 c23
-27 47 -32 33 -7 -6 11 -5 28 2 46 13 34 -1 48 -46 48 -27 0 -28 -2 -28 -55z
m53 20 c1 -5 -6 -11 -15 -13 -11 -2 -18 3 -18 13 0 17 30 18 33 0z"/>
<path d="M11017 7719 c-19 -51 -16 -72 5 -51 15 15 48 16 48 2 0 -6 27 -10 60
-10 59 0 84 16 34 22 l-25 3 25 34 c15 19 26 39 26 43 0 4 -20 8 -45 8 -48 0
-63 -16 -20 -22 l25 -3 -22 -32 c-13 -18 -26 -33 -30 -33 -3 0 -13 19 -20 43
-20 59 -39 58 -61 -4z"/>
<path d="M11200 7751 c-26 -49 -4 -93 47 -93 47 0 71 62 37 96 -22 23 -71 20
-84 -3z m65 -36 c0 -23 -5 -31 -22 -33 -26 -4 -41 31 -22 54 20 24 44 13 44
-21z"/>
<path d="M11410 7715 c0 -30 5 -55 10 -55 6 0 10 9 10 19 0 14 8 21 27 23 54
6 37 68 -18 68 -28 0 -29 -1 -29 -55z m53 20 c1 -5 -6 -11 -15 -13 -11 -2 -18
3 -18 13 0 17 30 18 33 0z"/>
<path d="M12236 7738 c-26 -64 -28 -78 -12 -78 9 0 16 5 16 10 0 6 9 10 20 10
11 0 20 -4 20 -10 0 -5 6 -10 14 -10 15 0 27 22 25 48 -1 10 -4 6 -8 -8 -6
-23 -8 -20 -20 23 -16 55 -36 61 -55 15z"/>
<path d="M11537 7708 c-6 -41 9 -58 46 -51 25 5 28 9 25 42 -3 32 -6 36 -34
39 -29 3 -32 0 -37 -30z m50 6 c-3 -3 -12 -4 -19 -1 -8 3 -5 6 6 6 11 1 17 -2
13 -5z m-7 -34 c0 -5 -2 -10 -4 -10 -3 0 -8 5 -11 10 -3 6 -1 10 4 10 6 0 11
-4 11 -10z"/>
<path d="M11620 7700 c0 -29 4 -40 15 -40 10 0 15 10 15 30 0 17 5 30 10 30 6
0 10 -13 10 -30 0 -20 5 -30 15 -30 9 0 15 9 15 24 0 44 -10 56 -46 56 -33 0
-34 -1 -34 -40z"/>
<path d="M11710 7700 c0 -29 4 -40 15 -40 11 0 15 11 15 40 0 29 -4 40 -15 40
-11 0 -15 -11 -15 -40z"/>
<path d="M11877 7708 c-6 -41 9 -58 46 -51 25 5 28 9 25 42 -3 32 -6 36 -34
39 -29 3 -32 0 -37 -30z m50 6 c-3 -3 -12 -4 -19 -1 -8 3 -5 6 6 6 11 1 17 -2
13 -5z m-7 -34 c0 -5 -2 -10 -4 -10 -3 0 -8 5 -11 10 -3 6 -1 10 4 10 6 0 11
-4 11 -10z"/>
<path d="M12097 7733 c-13 -12 -7 -60 8 -73 12 -10 22 -10 39 -2 21 9 26 32
18 75 -2 9 -56 9 -65 0z m40 -19 c-3 -3 -12 -4 -19 -1 -8 3 -5 6 6 6 11 1 17
-2 13 -5z m0 -30 c-3 -3 -12 -4 -19 -1 -8 3 -5 6 6 6 11 1 17 -2 13 -5z"/>
<path d="M540 7065 c0 -8 5 -15 10 -15 6 0 10 7 10 15 0 8 -4 15 -10 15 -5 0
-10 -7 -10 -15z"/>
<path d="M416 6493 c-11 -11 -6 -23 9 -23 8 0 15 4 15 9 0 13 -16 22 -24 14z"/>
<path d="M412 6438 c6 -18 28 -21 28 -4 0 9 -7 16 -16 16 -9 0 -14 -5 -12 -12z"/>
<path d="M540 6465 c0 -8 5 -15 10 -15 6 0 10 7 10 15 0 8 -4 15 -10 15 -5 0
-10 -7 -10 -15z"/>
<path d="M416 5893 c-12 -12 -6 -33 9 -33 8 0 15 6 15 14 0 17 -14 28 -24 19z"/>
<path d="M540 5865 c0 -8 5 -15 10 -15 6 0 10 7 10 15 0 8 -4 15 -10 15 -5 0
-10 -7 -10 -15z"/>
<path d="M400 5281 c-8 -15 -8 -27 0 -42 16 -29 35 -18 35 21 0 39 -19 50 -35
21z"/>
<path d="M540 5265 c0 -8 5 -15 10 -15 6 0 10 7 10 15 0 8 -4 15 -10 15 -5 0
-10 -7 -10 -15z"/>
<path d="M540 4665 c0 -8 5 -15 10 -15 6 0 10 7 10 15 0 8 -4 15 -10 15 -5 0
-10 -7 -10 -15z"/>
<path d="M6440 4460 c0 -5 14 -10 30 -10 17 0 30 5 30 10 0 6 -13 10 -30 10
-16 0 -30 -4 -30 -10z"/>
<path d="M537 4094 c-14 -15 -6 -34 14 -34 14 0 19 5 17 17 -3 18 -20 27 -31
17z"/>
<path d="M5270 3944 c0 -17 22 -14 28 4 2 7 -3 12 -12 12 -9 0 -16 -7 -16 -16z"/>
<path d="M5316 3951 c-8 -12 3 -18 31 -17 13 1 23 5 23 10 1 13 -47 19 -54 7z"/>
<path d="M5870 3900 c0 -47 3 -60 15 -60 12 0 15 13 15 60 0 47 -3 60 -15 60
-12 0 -15 -13 -15 -60z"/>
<path d="M4910 3895 c0 -42 3 -55 15 -55 9 0 15 9 16 23 l0 22 11 -23 c8 -15
19 -21 37 -20 15 1 32 -1 39 -6 6 -4 21 -2 32 4 31 16 24 74 -8 78 -31 5 -52
-14 -52 -46 0 -20 -3 -23 -12 -14 -9 9 -9 17 2 36 18 34 -1 56 -46 56 l-34 0
0 -55z m52 20 c0 -5 -5 -11 -11 -13 -6 -2 -11 4 -11 13 0 9 5 15 11 13 6 -2
11 -8 11 -13z m95 -51 c-3 -3 -12 -4 -19 -1 -8 3 -5 6 6 6 11 1 17 -2 13 -5z"/>
<path d="M5534 3925 c-33 -50 3 -96 67 -87 24 4 29 9 29 33 0 26 -4 29 -30 29
-16 0 -30 -4 -30 -10 0 -5 7 -10 15 -10 8 0 15 -5 15 -11 0 -6 -10 -9 -22 -7
-25 3 -34 33 -18 58 8 13 13 13 30 2 26 -16 46 -6 29 14 -19 23 -66 17 -85
-11z"/>
<path d="M5090 3885 c0 -38 19 -54 56 -47 20 4 24 10 24 43 0 28 -4 39 -15 39
-10 0 -15 -10 -15 -30 0 -16 -4 -30 -10 -30 -5 0 -10 14 -10 30 0 20 -5 30
-15 30 -10 0 -15 -11 -15 -35z"/>
<path d="M5180 3881 c0 -30 4 -41 15 -41 10 0 15 10 15 30 0 17 5 30 10 30 6
0 10 -13 10 -30 0 -21 5 -30 16 -30 12 0 14 9 12 38 -3 35 -5 37 -40 40 l-38
3 0 -40z"/>
<path d="M5270 3880 c0 -29 4 -40 15 -40 11 0 15 11 15 40 0 29 -4 40 -15 40
-11 0 -15 -11 -15 -40z"/>
<path d="M5317 3913 c-10 -20 -6 -71 6 -76 20 -7 67 4 67 16 0 5 9 2 19 -7 25
-23 59 -13 67 20 4 14 1 31 -6 39 -15 18 -51 20 -68 3 -9 -9 -15 -9 -24 0 -13
13 -55 16 -61 5z m40 -19 c-3 -3 -12 -4 -19 -1 -8 3 -5 6 6 6 11 1 17 -2 13
-5z m93 -14 c0 -11 -7 -20 -15 -20 -8 0 -15 9 -15 20 0 11 7 20 15 20 8 0 15
-9 15 -20z m-90 -14 c0 -11 -19 -15 -25 -6 -3 5 1 10 9 10 9 0 16 -2 16 -4z"/>
<path d="M5647 3914 c-13 -13 -7 -61 8 -74 27 -23 62 2 61 42 -1 29 -4 33 -31
36 -17 2 -34 0 -38 -4z"/>
<path d="M5730 3880 c0 -29 4 -40 15 -40 10 0 15 10 15 30 0 21 5 30 16 30 12
0 15 -6 10 -24 -8 -31 14 -49 49 -40 23 6 26 11 23 43 l-3 36 -62 2 -63 2 0
-39z"/>
<path d="M4917 3759 c-9 -6 -15 -15 -12 -20 4 -5 11 -7 16 -4 5 4 9 -12 9 -34
0 -23 5 -41 10 -41 6 0 10 25 10 55 0 57 -3 61 -33 44z"/>
<path d="M4975 3760 c-4 -7 -2 -17 4 -23 8 -8 11 -8 11 1 0 7 7 12 15 12 23 0
18 -24 -10 -50 -34 -32 -32 -40 10 -40 19 0 35 5 35 10 0 6 -7 10 -17 10 -15
0 -15 2 1 19 26 28 17 65 -16 69 -14 2 -29 -2 -33 -8z"/>
<path d="M5102 3758 c-13 -13 -16 -67 -4 -84 11 -17 35 -22 60 -13 17 7 22 16
22 47 0 43 -14 62 -45 62 -12 0 -26 -5 -33 -12z m56 -39 c2 -14 -4 -31 -12
-38 -12 -10 -17 -8 -26 9 -6 11 -8 30 -5 41 9 28 39 20 43 -12z"/>
<path d="M5196 3748 c-9 -35 -8 -38 18 -38 31 0 40 -14 21 -30 -10 -9 -15 -9
-15 -1 0 6 -7 11 -15 11 -21 0 -19 -17 5 -30 31 -16 62 4 58 38 -2 19 -10 28
-25 30 -28 4 -31 22 -4 22 11 0 23 5 26 10 4 6 -8 10 -28 10 -27 0 -36 -5 -41
-22z"/>
<path d="M5459 3753 c-11 -13 -11 -17 -1 -20 6 -3 12 -20 12 -39 0 -24 5 -34
15 -34 12 0 15 13 15 55 0 58 -14 71 -41 38z"/>
<path d="M5517 3755 c-7 -17 9 -30 18 -15 10 17 25 11 25 -10 0 -11 -11 -27
-25 -36 -36 -24 -31 -34 18 -33 34 0 39 2 26 11 -15 10 -15 14 -1 39 14 22 14
30 3 43 -17 20 -57 21 -64 1z"/>
<path d="M5640 3740 c0 -25 4 -30 25 -30 16 0 25 -6 25 -16 0 -12 -7 -14 -30
-9 -24 5 -29 4 -24 -8 8 -21 40 -27 59 -13 24 18 16 60 -12 64 -31 5 -29 22 2
22 14 0 25 5 25 10 0 6 -16 10 -35 10 -32 0 -35 -2 -35 -30z"/>
<path d="M5727 3763 c-4 -3 -7 -17 -7 -30 0 -18 5 -23 25 -23 14 0 25 -6 25
-13 0 -21 -12 -28 -27 -15 -7 6 -17 8 -21 4 -4 -4 1 -14 11 -21 19 -14 46 -10
59 9 4 6 8 -1 8 -16 0 -33 19 -47 27 -20 3 11 11 18 18 16 16 -7 45 22 45 45
0 26 -21 41 -57 41 -22 0 -33 -5 -33 -14 0 -11 -5 -12 -25 -3 -30 14 -32 27
-5 27 11 0 20 5 20 10 0 11 -53 14 -63 3z m131 -65 c-2 -13 -7 -23 -13 -23 -5
0 -11 10 -13 23 -2 15 2 22 13 22 11 0 15 -7 13 -22z"/>
<path d="M5050 3730 c0 -5 7 -10 15 -10 8 0 15 5 15 10 0 6 -7 10 -15 10 -8 0
-15 -4 -15 -10z"/>
<path d="M5600 3730 c0 -5 5 -10 10 -10 6 0 10 5 10 10 0 6 -4 10 -10 10 -5 0
-10 -4 -10 -10z"/>
<path d="M5900 3700 c0 -22 5 -40 10 -40 6 0 10 14 10 30 0 17 5 30 10 30 6 0
10 -13 10 -30 0 -20 5 -30 15 -30 10 0 15 10 15 30 0 17 5 30 10 30 6 0 10
-13 10 -30 0 -16 5 -30 10 -30 6 0 10 18 10 40 l0 40 -55 0 -55 0 0 -40z"/>
<path d="M5320 3710 c0 -5 18 -10 41 -10 24 0 38 4 34 10 -3 6 -22 10 -41 10
-19 0 -34 -4 -34 -10z"/>
<path d="M5050 3670 c0 -5 7 -10 15 -10 8 0 15 5 15 10 0 6 -7 10 -15 10 -8 0
-15 -4 -15 -10z"/>
<path d="M5600 3670 c0 -5 7 -10 16 -10 8 0 12 5 9 10 -3 6 -10 10 -16 10 -5
0 -9 -4 -9 -10z"/>
<path d="M540 3480 c0 -11 6 -20 14 -20 21 0 31 21 15 31 -22 14 -29 11 -29
-11z"/>
<path d="M537 2894 c-14 -15 -6 -34 14 -34 14 0 19 5 17 17 -3 18 -20 27 -31
17z"/>
<path d="M540 2280 c0 -11 6 -20 14 -20 21 0 31 21 15 31 -22 14 -29 11 -29
-11z"/>
<path d="M420 1660 c-9 -16 -8 -20 5 -20 8 0 15 9 15 20 0 11 -2 20 -5 20 -2
0 -9 -9 -15 -20z"/>
<path d="M540 1680 c0 -11 6 -20 14 -20 21 0 31 21 15 31 -22 14 -29 11 -29
-11z"/>
<path d="M7212 1598 c6 -18 28 -21 28 -4 0 9 -7 16 -16 16 -9 0 -14 -5 -12
-12z"/>
<path d="M7265 1602 c-13 -13 -3 -23 22 -20 34 4 42 26 9 26 -14 0 -28 -3 -31
-6z"/>
<path d="M7520 1590 c0 -13 -7 -20 -20 -20 -10 0 -24 -9 -30 -21 -16 -29 13
-73 43 -65 12 3 25 6 30 6 4 0 7 27 7 60 0 47 -3 60 -15 60 -8 0 -15 -9 -15
-20z m0 -60 c0 -11 -4 -20 -9 -20 -14 0 -23 18 -16 30 10 17 25 11 25 -10z"/>
<path d="M6850 1545 c0 -42 3 -55 15 -55 9 0 15 9 16 23 l0 22 16 -22 c8 -13
22 -23 29 -23 16 0 19 16 4 25 -12 8 -13 25 -1 25 5 0 12 -11 15 -24 3 -13 12
-26 20 -29 21 -8 56 4 56 19 0 10 5 9 19 -5 12 -12 27 -17 45 -14 23 5 26 10
26 44 0 28 -4 39 -15 39 -10 0 -15 -10 -15 -30 0 -16 -4 -30 -10 -30 -5 0 -10
14 -10 30 0 30 -23 43 -33 18 -4 -10 -6 -10 -6 0 -1 15 -53 16 -69 0 -9 -9
-12 -7 -12 9 0 23 -18 33 -61 33 -29 0 -29 -1 -29 -55z m60 20 c0 -8 -7 -15
-15 -15 -8 0 -15 7 -15 15 0 8 7 15 15 15 8 0 15 -7 15 -15z m87 -21 c-3 -3
-12 -4 -19 -1 -8 3 -5 6 6 6 11 1 17 -2 13 -5z m0 -30 c-3 -3 -12 -4 -19 -1
-8 3 -5 6 6 6 11 1 17 -2 13 -5z"/>
<path d="M7120 1531 c0 -30 4 -41 15 -41 10 0 15 10 15 30 0 17 5 30 10 30 6
0 10 -13 10 -30 0 -21 5 -30 16 -30 12 0 14 9 12 38 -3 35 -5 37 -40 40 l-38
3 0 -40z"/>
<path d="M7210 1530 c0 -29 4 -40 15 -40 11 0 15 11 15 40 0 29 -4 40 -15 40
-11 0 -15 -11 -15 -40z"/>
<path d="M7257 1563 c-10 -20 -6 -71 6 -76 23 -9 67 5 67 20 0 11 6 8 19 -8
17 -21 22 -22 45 -11 23 10 27 18 24 45 -3 27 -7 32 -33 35 -19 3 -33 -2 -42
-14 -11 -16 -13 -16 -19 -1 -6 17 -59 24 -67 10z m133 -33 c0 -21 -15 -27 -25
-10 -7 12 2 30 16 30 5 0 9 -9 9 -20z"/>
<path d="M7572 1558 c-34 -34 6 -91 49 -68 31 17 23 74 -11 78 -14 2 -31 -3
-38 -10z m45 -44 c-3 -3 -12 -4 -19 -1 -8 3 -5 6 6 6 11 1 17 -2 13 -5z"/>
<path d="M6862 1408 c-21 -21 -15 -76 11 -92 23 -15 87 -11 87 6 0 5 7 2 16
-7 9 -9 23 -14 31 -11 8 3 19 6 24 6 5 0 9 6 9 14 0 22 15 27 42 16 22 -10 22
-10 -4 -5 -30 6 -36 -3 -16 -23 16 -16 33 -15 52 4 15 14 17 14 32 -1 11 -11
20 -13 27 -6 6 6 18 6 33 -1 19 -9 28 -8 44 7 11 10 20 13 20 7 0 -7 7 -12 15
-12 10 0 15 10 15 30 0 20 5 30 15 30 9 0 15 -9 15 -24 0 -35 25 -52 55 -38
19 9 31 9 50 0 34 -15 56 4 51 46 -3 27 -7 31 -35 34 -30 3 -32 1 -29 -24 2
-15 -2 -29 -7 -31 -6 -2 -11 9 -10 24 0 28 -1 28 -67 30 -47 2 -68 -1 -68 -9
0 -9 -3 -9 -12 0 -27 27 -78 7 -78 -30 0 -10 -4 -18 -10 -18 -14 0 -12 38 2
42 9 3 8 9 -4 21 -18 19 -38 22 -38 7 0 -5 -15 -10 -33 -10 -18 0 -38 -5 -45
-12 -9 -9 -12 -9 -12 0 0 16 -55 15 -69 -1 -6 -8 -23 -12 -41 -9 -18 3 -30 0
-30 -7 0 -6 7 -11 16 -11 8 0 12 -4 9 -10 -3 -5 -15 -10 -26 -10 -15 0 -19 7
-19 30 0 35 22 49 45 30 18 -15 30 -7 22 15 -8 18 -67 21 -85 3z m155 -44 c-3
-3 -12 -4 -19 -1 -8 3 -5 6 6 6 11 1 17 -2 13 -5z m113 -10 c0 -8 -4 -12 -10
-9 -5 3 -10 10 -10 16 0 5 5 9 10 9 6 0 10 -7 10 -16z m110 -4 c0 -11 -7 -20
-15 -20 -8 0 -15 9 -15 20 0 11 7 20 15 20 8 0 15 -9 15 -20z m-223 -16 c-3
-3 -12 -4 -19 -1 -8 3 -5 6 6 6 11 1 17 -2 13 -5z"/>
<path d="M6871 1194 c-26 -44 -26 -54 -1 -54 11 0 20 -4 20 -10 0 -14 27 -12
32 3 9 24 -4 97 -17 97 -7 0 -22 -16 -34 -36z"/>
<path d="M7126 1208 c-33 -47 -7 -109 38 -92 36 14 26 74 -12 74 -13 0 -12 3
3 20 16 17 16 20 2 20 -9 0 -23 -10 -31 -22z m34 -52 c0 -8 -4 -17 -9 -21 -12
-7 -24 12 -16 25 9 15 25 12 25 -4z"/>
<path d="M7233 1212 c-35 -18 -42 -32 -18 -32 8 0 15 4 15 8 0 5 7 9 15 9 11
0 15 -11 15 -39 0 -21 5 -38 10 -38 6 0 10 25 10 55 0 30 -3 55 -7 54 -5 0
-23 -8 -40 -17z"/>
<path d="M7307 1223 c-4 -3 -7 -17 -7 -30 0 -18 5 -23 25 -23 14 0 25 -6 25
-13 0 -21 -12 -28 -27 -15 -7 6 -17 8 -21 4 -11 -12 27 -34 48 -29 38 10 33
73 -6 73 -8 0 -14 5 -14 10 0 6 9 10 20 10 11 0 20 5 20 10 0 11 -53 14 -63 3z"/>
<path d="M7390 1140 c0 -33 4 -60 10 -60 6 0 10 9 10 21 0 11 4 17 10 14 16
-10 50 14 50 35 0 37 -11 50 -46 50 l-34 0 0 -60z m55 30 c8 -13 -14 -42 -26
-34 -5 3 -9 14 -9 25 0 20 24 26 35 9z"/>
<path d="M7480 1160 c0 -22 5 -40 10 -40 6 0 10 14 10 30 0 17 5 30 10 30 6 0
10 -13 10 -30 0 -20 5 -30 15 -30 10 0 15 10 15 30 0 17 5 30 10 30 6 0 10
-13 10 -30 0 -16 5 -30 10 -30 6 0 10 18 10 40 l0 40 -55 0 -55 0 0 -40z"/>
<path d="M6980 1170 c0 -5 18 -10 40 -10 22 0 40 5 40 10 0 6 -18 10 -40 10
-22 0 -40 -4 -40 -10z"/>
<path d="M7200 1130 c0 -5 7 -10 15 -10 8 0 15 5 15 10 0 6 -7 10 -15 10 -8 0
-15 -4 -15 -10z"/>
<path d="M537 1094 c-14 -15 -6 -34 14 -34 14 0 19 5 17 17 -3 18 -20 27 -31
17z"/>
<path d="M420 440 c0 -13 5 -20 13 -17 6 2 12 10 12 17 0 7 -6 15 -12 18 -8 2
-13 -5 -13 -18z"/>
<path d="M537 494 c-14 -15 -6 -34 14 -34 14 0 19 5 17 17 -3 18 -20 27 -31
17z"/>
</g>
</svg>
